<svg width="553" height="415" viewBox="0 0 553 415" fill="none" xmlns="http://www.w3.org/2000/svg">
<g style="mix-blend-mode:darken" clip-path="url(#clip0)">
<path d="M351.909 0H301.637V291.104H351.909V0Z" fill="white" stroke="#3A3A3A" stroke-width="2.18036" stroke-miterlimit="10" stroke-linecap="round" stroke-linejoin="round"/>
<path d="M301.636 0H251.363V291.104H301.636V0Z" fill="white" stroke="#3A3A3A" stroke-width="2.18036" stroke-miterlimit="10" stroke-linecap="round" stroke-linejoin="round"/>
<path d="M402.182 0H351.909V291.104H402.182V0Z" fill="white" stroke="#3A3A3A" stroke-width="2.18036" stroke-miterlimit="10" stroke-linecap="round" stroke-linejoin="round"/>
<path d="M502.727 0H452.455V291.104H502.727V0Z" fill="white" stroke="#3A3A3A" stroke-width="2.18036" stroke-miterlimit="10" stroke-linecap="round" stroke-linejoin="round"/>
<path d="M201.09 0H150.818V291.104H201.09V0Z" fill="white" stroke="#3A3A3A" stroke-width="2.18036" stroke-miterlimit="10" stroke-linecap="round" stroke-linejoin="round"/>
<path d="M100.545 0H50.2727V291.104H100.545V0Z" fill="white" stroke="#3A3A3A" stroke-width="2.18036" stroke-miterlimit="10" stroke-linecap="round" stroke-linejoin="round"/>
<path d="M452.455 0H402.182V291.104H452.455V0Z" fill="white" stroke="#3A3A3A" stroke-width="2.18036" stroke-miterlimit="10" stroke-linecap="round" stroke-linejoin="round"/>
<path d="M553 0H502.727V291.104H553V0Z" fill="white" stroke="#3A3A3A" stroke-width="2.18036" stroke-miterlimit="10" stroke-linecap="round" stroke-linejoin="round"/>
<path d="M251.363 0H201.091V291.104H251.363V0Z" fill="white" stroke="#3A3A3A" stroke-width="2.18036" stroke-miterlimit="10" stroke-linecap="round" stroke-linejoin="round"/>
<path d="M150.818 0H100.545V291.104H150.818V0Z" fill="white" stroke="#3A3A3A" stroke-width="2.18036" stroke-miterlimit="10" stroke-linecap="round" stroke-linejoin="round"/>
<path d="M50.2726 0H0V291.104H50.2726V0Z" fill="white" stroke="#3A3A3A" stroke-width="2.18036" stroke-miterlimit="10" stroke-linecap="round" stroke-linejoin="round"/>
<path d="M32.7336 308.243L40.2495 317.039L97.2549 308.243L86.5949 300.703L32.7336 308.243Z" fill="#3A3A3A"/>
<path d="M40.2494 317.525C40.109 317.525 39.9743 317.464 39.8823 317.355L32.3665 308.559C32.2512 308.424 32.2183 308.236 32.2813 308.071C32.3442 307.905 32.4924 307.786 32.6668 307.762L86.528 300.222C86.652 300.205 86.773 300.235 86.8738 300.306L97.5339 307.846C97.6956 307.96 97.7712 308.16 97.7266 308.354C97.6811 308.547 97.5242 308.693 97.3285 308.723L40.323 317.519C40.2988 317.523 40.2746 317.525 40.2494 317.525ZM33.6781 308.602L40.4422 316.518L95.9947 307.947L86.4728 301.212L33.6781 308.602Z" fill="#3A3A3A"/>
<path d="M238.652 58.921C238.652 58.921 233.9 67.3965 233.9 79.5801C233.9 91.7637 233.9 92.2933 233.9 92.2933L275.088 84.3474C275.088 84.3474 268.751 71.1046 266.639 54.1527L249.742 55.2119C249.741 55.2128 242.348 55.7434 238.652 58.921Z" fill="white"/>
<path d="M233.9 92.7791C233.788 92.7791 233.679 92.7403 233.592 92.6674C233.48 92.5751 233.415 92.438 233.415 92.2933V79.58C233.415 67.41 238.182 58.7684 238.23 58.6829C238.258 58.6333 238.294 58.5886 238.337 58.5517C241.985 55.4159 248.92 54.7891 249.698 54.7279L266.609 53.6678C266.862 53.6542 267.089 53.8378 267.12 54.0924C269.197 70.7732 275.461 84.0053 275.524 84.1375C275.589 84.2735 275.587 84.4319 275.52 84.566C275.452 84.7001 275.326 84.7963 275.178 84.8245L233.99 92.7704C233.961 92.7762 233.93 92.7791 233.9 92.7791ZM239.034 59.2329C238.577 60.09 234.384 68.269 234.384 79.58V91.7054L274.39 83.9878C273.182 81.2884 268.116 69.335 266.217 54.6667L249.777 55.6977C249.776 55.6977 249.775 55.6977 249.774 55.6977C249.478 55.7201 242.53 56.2963 239.034 59.2329Z" fill="#3A3A3A"/>
<path d="M211.37 208.006C211.37 208.006 215.437 216.833 225.282 223.967C235.128 231.102 235.556 231.412 235.556 231.412L253.252 193.264C253.252 193.264 238.841 190.663 223.906 182.455L214.867 196.817C214.867 196.816 210.966 203.138 211.37 208.006Z" fill="white"/>
<path d="M235.556 231.898C235.455 231.898 235.355 231.867 235.273 231.806L224.999 224.362C215.166 217.235 210.973 208.299 210.932 208.21C210.908 208.158 210.893 208.103 210.889 208.046C210.471 203.02 214.47 196.534 214.512 196.489L223.497 182.196C223.634 181.98 223.914 181.906 224.139 182.029C238.835 190.106 253.196 192.761 253.339 192.786C253.488 192.813 253.614 192.907 253.683 193.041C253.752 193.175 253.756 193.333 253.692 193.469L235.996 231.617C235.935 231.748 235.818 231.845 235.679 231.882C235.638 231.893 235.596 231.898 235.556 231.898ZM211.846 207.877C212.271 208.752 216.426 216.949 225.566 223.574L235.364 230.673L252.553 193.62C249.664 193.022 237.038 190.142 224.072 183.099L215.276 197.076C215.24 197.136 211.512 203.21 211.846 207.877Z" fill="#3A3A3A"/>
<path d="M354.187 106.441C354.187 106.441 363.692 122.862 364.221 131.338C364.221 131.338 368.973 130.808 374.254 125.51C379.534 120.213 382.175 117.564 382.175 112.267C382.175 106.97 382.175 92.1378 382.175 92.1378C382.175 92.1378 375.838 97.9653 371.085 100.613C366.332 103.262 354.187 106.441 354.187 106.441Z" fill="white"/>
<path d="M364.221 131.823C364.107 131.823 363.997 131.784 363.909 131.71C363.808 131.624 363.745 131.501 363.737 131.368C363.222 123.102 353.863 106.848 353.768 106.685C353.692 106.553 353.682 106.394 353.74 106.254C353.798 106.114 353.918 106.009 354.064 105.97C354.185 105.938 366.204 102.777 370.85 100.189C375.497 97.5989 381.784 91.8375 381.847 91.7802C381.989 91.649 382.195 91.616 382.369 91.6937C382.546 91.7714 382.659 91.9454 382.659 92.1388V112.268C382.659 117.766 379.965 120.469 374.597 125.854C369.257 131.211 364.474 131.799 364.274 131.822C364.256 131.822 364.238 131.823 364.221 131.823ZM354.921 106.748C356.564 109.657 363.873 122.955 364.658 130.761C365.983 130.463 369.795 129.295 373.911 125.166C379.091 119.97 381.689 117.362 381.689 112.267V93.2261C379.821 94.8839 375.115 98.9234 371.32 101.038C367.127 103.376 357.472 106.061 354.921 106.748Z" fill="#3A3A3A"/>
<path d="M317.98 306.255L346.494 299.368L366.032 309.433L342.798 315.791C342.798 315.791 336.461 315.791 333.821 314.731C331.181 313.671 317.98 306.255 317.98 306.255Z" fill="#3A3A3A"/>
<path d="M342.798 316.276C342.535 316.276 336.337 316.264 333.641 315.182C331.002 314.122 318.283 306.982 317.743 306.679C317.568 306.58 317.472 306.386 317.499 306.188C317.527 305.99 317.672 305.828 317.866 305.782L346.38 298.895C346.493 298.868 346.611 298.882 346.715 298.935L366.253 309C366.431 309.091 366.534 309.284 366.513 309.483C366.493 309.682 366.352 309.848 366.159 309.901L342.925 316.258C342.884 316.271 342.841 316.276 342.798 316.276ZM319.298 306.437C322.504 308.227 331.861 313.421 334.001 314.28C336.386 315.238 342.067 315.301 342.735 315.305L364.702 309.294L346.434 299.883L319.298 306.437Z" fill="#3A3A3A"/>
<path d="M190.69 308.824L163.745 320.445L142.792 313.836L164.622 303.633C164.622 303.633 170.868 302.559 173.648 303.156C176.429 303.753 190.69 308.824 190.69 308.824Z" fill="#3A3A3A"/>
<path d="M163.744 320.931C163.696 320.931 163.647 320.923 163.599 320.909L142.647 314.3C142.456 314.24 142.323 314.069 142.309 313.868C142.295 313.668 142.407 313.481 142.588 313.396L164.418 303.193C164.456 303.175 164.498 303.162 164.54 303.154C164.698 303.127 168.439 302.489 171.442 302.489C172.381 302.489 173.158 302.554 173.749 302.681C176.529 303.278 190.267 308.159 190.85 308.367C191.038 308.434 191.166 308.608 191.173 308.809C191.18 309.009 191.063 309.192 190.88 309.271L163.935 320.892C163.875 320.917 163.809 320.931 163.744 320.931ZM144.127 313.748L163.718 319.927L189.36 308.869C185.898 307.648 175.801 304.115 173.547 303.631C173.022 303.519 172.315 303.461 171.443 303.461C168.732 303.461 165.275 304.017 164.767 304.102L144.127 313.748Z" fill="#3A3A3A"/>
<path d="M334.308 262.829C337.096 263.941 339.949 264.549 342.41 264.549H342.411C346.149 264.549 350.749 263.168 351.439 256.588C351.727 253.843 351.186 250.876 349.832 247.757L334.308 262.829ZM343.56 236.963C344.464 237.873 347.314 240.899 349.564 245.011L352.108 223.003C349.08 228.006 344.569 235.329 343.56 236.963ZM354.187 213.445L353.665 217.963C354.228 216.25 354.295 214.68 354.187 213.445Z" fill="#3A3A3A"/>
<path d="M342.411 265.035C339.908 265.035 336.967 264.412 334.128 263.281C333.975 263.22 333.864 263.086 333.832 262.924C333.8 262.762 333.852 262.596 333.97 262.48L349.495 247.408C349.609 247.297 349.769 247.249 349.926 247.28C350.082 247.311 350.213 247.417 350.276 247.563C351.663 250.759 352.216 253.812 351.921 256.639C351.193 263.578 346.348 265.035 342.411 265.035ZM335.192 262.647C337.694 263.564 340.233 264.063 342.411 264.063H342.412C347.559 264.063 350.435 261.531 350.959 256.537C351.217 254.07 350.781 251.403 349.66 248.601L335.192 262.647ZM349.564 245.497C349.39 245.497 349.226 245.403 349.14 245.244C346.906 241.162 344.043 238.136 343.218 237.305C343.059 237.146 343.031 236.898 343.149 236.707C343.688 235.833 348.506 228.019 351.695 222.749C351.813 222.554 352.051 222.468 352.265 222.542C352.481 222.616 352.616 222.83 352.589 223.058L350.045 245.067C350.021 245.277 349.864 245.447 349.658 245.487C349.626 245.494 349.595 245.497 349.564 245.497ZM344.172 236.895C345.136 237.896 347.312 240.304 349.252 243.5L351.372 225.149C348.555 229.78 345.115 235.365 344.172 236.895ZM353.665 218.449C353.63 218.449 353.595 218.445 353.561 218.437C353.318 218.384 353.155 218.154 353.184 217.907L353.706 213.388C353.735 213.14 353.963 212.969 354.194 212.959C354.442 212.962 354.647 213.154 354.67 213.403C354.809 215.006 354.626 216.591 354.125 218.116C354.058 218.318 353.871 218.449 353.665 218.449Z" fill="#3A3A3A"/>
<path d="M354.562 210.552C354.562 210.552 362.483 220.617 363.539 228.563C364.594 236.509 364.067 235.449 361.955 240.217C359.843 244.984 350.369 261.369 350.369 261.369C350.369 261.369 357.731 253.46 342.945 237.039L354.562 210.552Z" fill="white"/>
<path d="M350.369 261.855C350.268 261.855 350.166 261.824 350.08 261.76C349.882 261.612 349.826 261.34 349.949 261.126L351.03 259.247C352.317 255.985 352.908 248.829 342.585 237.365C342.457 237.223 342.424 237.019 342.501 236.843L354.119 210.355C354.186 210.199 354.332 210.091 354.5 210.069C354.672 210.046 354.836 210.116 354.942 210.249C355.268 210.664 362.957 220.511 364.018 228.498C364.908 235.202 364.671 235.688 363.351 238.386C363.081 238.938 362.763 239.587 362.398 240.413C360.728 244.181 354.517 255.112 351.904 259.671C351.37 260.996 350.75 261.672 350.722 261.7C350.629 261.803 350.499 261.855 350.369 261.855ZM343.515 236.948C351.454 245.848 352.974 252.308 352.649 256.413C355.629 251.173 360.14 243.118 361.512 240.02C361.884 239.181 362.208 238.521 362.482 237.96C363.721 235.43 363.911 235.04 363.059 228.629C362.185 222.046 356.41 213.846 354.675 211.505L343.515 236.948Z" fill="#3A3A3A"/>
<path d="M293.171 121.521L273.633 169.196C273.633 169.196 294.226 190.916 305.844 173.434C305.844 173.434 297.923 173.434 303.731 157.542C309.539 141.651 309.011 143.239 309.011 143.239L293.171 121.521Z" fill="white"/>
<path d="M294.324 180.725C284.015 180.725 273.715 169.988 273.282 169.532C273.151 169.393 273.113 169.189 273.185 169.012L292.723 121.336C292.79 121.174 292.939 121.059 293.113 121.039C293.284 121.018 293.457 121.093 293.561 121.234L309.278 142.782C309.331 142.815 309.378 142.858 309.417 142.911C309.508 143.037 309.521 143.244 309.471 143.393C309.459 143.431 309.442 143.466 309.422 143.499C309.232 143.978 308.321 146.396 304.186 157.709C301.182 165.927 301.953 169.664 303.128 171.352C304.227 172.931 305.828 172.948 305.845 172.948C306.024 172.948 306.187 173.047 306.272 173.205C306.356 173.362 306.347 173.555 306.248 173.703C303.151 178.363 299.14 180.725 294.324 180.725ZM274.202 169.085C275.751 170.637 285.23 179.753 294.324 179.753C298.576 179.753 302.167 177.75 305.007 173.795C304.267 173.603 303.178 173.121 302.333 171.908C300.433 169.179 300.75 164.289 303.277 157.376C306.979 147.247 308.128 144.161 308.458 143.303L293.291 122.508L274.202 169.085Z" fill="#3A3A3A"/>
<path d="M435.139 165.62C435.139 165.62 430.914 189.458 422.994 212.236C422.994 212.236 420.353 215.945 419.297 216.474C419.297 216.474 419.297 200.582 411.377 187.869L424.05 179.923C424.05 179.922 430.914 177.274 435.139 165.62Z" fill="white"/>
<path d="M419.297 216.96C419.209 216.96 419.12 216.936 419.043 216.887C418.9 216.799 418.813 216.642 418.813 216.474C418.813 216.317 418.718 200.57 410.966 188.127C410.898 188.018 410.876 187.886 410.905 187.76C410.934 187.635 411.012 187.526 411.12 187.457L423.793 179.511C423.817 179.496 423.844 179.482 423.872 179.471C424.146 179.361 430.621 176.661 434.685 165.453C434.771 165.216 435.023 165.084 435.266 165.15C435.508 165.215 435.661 165.456 435.616 165.704C435.575 165.943 431.294 189.841 423.452 212.396C423.437 212.44 423.415 212.48 423.389 212.518C423.112 212.908 420.646 216.341 419.515 216.909C419.446 216.943 419.372 216.96 419.297 216.96ZM412.041 188.025C418.582 198.81 419.596 211.828 419.753 215.48C420.593 214.631 421.801 213.068 422.559 212.01C428.361 195.308 432.203 177.878 433.809 169.941C429.686 178.105 424.483 180.273 424.23 180.373L412.041 188.025Z" fill="#3A3A3A"/>
<path d="M410.545 298.567L400.255 311.159L433.893 313.596L441.016 298.567H410.545Z" fill="#3A3A3A"/>
<path d="M433.893 314.082C433.882 314.082 433.87 314.082 433.858 314.081L400.22 311.644C400.04 311.631 399.881 311.518 399.81 311.352C399.739 311.185 399.766 310.992 399.881 310.852L410.171 298.26C410.263 298.148 410.4 298.083 410.546 298.083H441.017C441.182 298.083 441.337 298.168 441.426 298.309C441.515 298.45 441.526 298.627 441.455 298.777L434.332 313.806C434.25 313.975 434.079 314.082 433.893 314.082ZM401.222 310.742L433.599 313.088L440.25 299.053H410.774L401.222 310.742Z" fill="#3A3A3A"/>
<path d="M208.067 101.755L231.018 114.44C231.018 114.44 222.093 119.514 222.73 124.588C223.367 129.662 227.193 130.93 229.106 129.662C231.019 128.394 232.931 125.857 232.931 125.857C232.931 125.857 227.831 134.102 222.093 137.907C216.355 141.713 202.966 141.079 199.142 137.907C199.142 137.907 197.229 117.612 208.067 101.755Z" fill="white"/>
<path d="M210.516 141.015C205.421 141.015 200.835 139.942 198.833 138.282C198.733 138.199 198.671 138.081 198.66 137.953C198.64 137.748 196.855 117.299 207.667 101.48C207.809 101.274 208.081 101.208 208.301 101.329L231.251 114.014C231.405 114.099 231.501 114.261 231.502 114.437C231.503 114.613 231.409 114.776 231.257 114.863C231.171 114.912 222.62 119.835 223.21 124.528C223.651 128.037 225.742 129.634 227.499 129.634C228.003 129.634 228.467 129.504 228.839 129.257C230.661 128.048 232.527 125.589 232.545 125.565C232.701 125.358 232.993 125.31 233.206 125.457C233.42 125.603 233.48 125.893 233.344 126.114C233.133 126.454 228.121 134.493 222.361 138.313C219.77 140.03 215.453 141.015 210.516 141.015ZM199.608 137.658C201.51 139.09 205.842 140.043 210.516 140.043C215.268 140.043 219.39 139.117 221.825 137.502C224.652 135.628 227.344 132.623 229.32 130.103C227.121 131.495 222.923 130.011 222.249 124.649C221.685 120.15 227.871 115.832 230.049 114.46L208.22 102.394C198.443 117.029 199.453 135.513 199.608 137.658Z" fill="#3A3A3A"/>
<path d="M166.935 267.106V278.605L128.142 310.332V297.738L166.935 267.106Z" fill="white"/>
<path d="M128.142 310.818C128.072 310.818 128 310.802 127.934 310.771C127.765 310.691 127.657 310.52 127.657 310.333V297.738C127.657 297.59 127.725 297.451 127.84 297.359L166.634 266.725C166.782 266.61 166.979 266.589 167.146 266.669C167.314 266.749 167.42 266.919 167.42 267.105V278.605C167.42 278.75 167.355 278.888 167.241 278.98L128.448 310.707C128.36 310.78 128.251 310.818 128.142 310.818ZM128.626 297.974V309.311L166.451 278.375V268.105L128.626 297.974Z" fill="#3A3A3A"/>
<path d="M166.935 164.491V175.991L128.142 197.953V185.358L166.935 164.491Z" fill="white"/>
<path d="M128.142 198.437C128.057 198.437 127.973 198.415 127.897 198.371C127.749 198.284 127.657 198.125 127.657 197.953V185.358C127.657 185.18 127.755 185.017 127.912 184.932L166.706 164.065C166.856 163.983 167.039 163.988 167.185 164.075C167.33 164.162 167.421 164.32 167.421 164.491V175.99C167.421 176.164 167.327 176.325 167.174 176.411L128.38 198.374C128.306 198.415 128.224 198.437 128.142 198.437ZM128.626 185.648V197.122L166.451 175.708V165.301L128.626 185.648Z" fill="#3A3A3A"/>
<path d="M166.935 261.002V102.241L128.142 112.05V261.002H166.935Z" fill="white"/>
<path d="M166.935 261.486H128.142C127.874 261.486 127.657 261.27 127.657 261.002V112.05C127.657 111.828 127.807 111.636 128.022 111.58L166.817 101.771C166.962 101.734 167.116 101.766 167.233 101.858C167.352 101.95 167.421 102.091 167.421 102.241V261.002C167.42 261.27 167.203 261.486 166.935 261.486ZM128.626 260.518H166.451V102.862L128.626 112.427V260.518Z" fill="#3A3A3A"/>
<path d="M166.935 296.696V245.743L128.142 262.213V336.81L166.935 296.696Z" fill="white"/>
<path d="M128.142 337.294C128.081 337.294 128.019 337.282 127.959 337.259C127.777 337.186 127.656 337.007 127.656 336.81V262.213C127.656 262.018 127.772 261.843 127.952 261.767L166.746 245.298C166.893 245.234 167.066 245.249 167.202 245.339C167.339 245.429 167.421 245.58 167.421 245.743V296.696C167.421 296.822 167.371 296.942 167.284 297.032L128.49 337.146C128.397 337.243 128.271 337.294 128.142 337.294ZM128.626 262.533V335.612L166.451 296.501V246.475L128.626 262.533Z" fill="#3A3A3A"/>
<path d="M164.026 138.105V144.939L128.142 161.297V153.546L164.026 138.105Z" fill="white"/>
<path d="M128.142 161.781C128.05 161.781 127.959 161.755 127.879 161.705C127.74 161.616 127.657 161.463 127.657 161.297V153.546C127.657 153.353 127.772 153.178 127.95 153.102L163.835 137.661C163.983 137.596 164.158 137.611 164.293 137.701C164.43 137.791 164.512 137.943 164.512 138.106V144.941C164.512 145.131 164.402 145.303 164.229 145.381L128.343 161.738C128.278 161.767 128.21 161.781 128.142 161.781ZM128.626 153.865V160.544L163.542 144.628V138.841L128.626 153.865Z" fill="#3A3A3A"/>
<path d="M164.026 172.991V179.865L128.142 201.017V193.109L164.026 172.991Z" fill="white"/>
<path d="M128.142 201.502C128.058 201.502 127.976 201.48 127.901 201.438C127.751 201.351 127.657 201.191 127.657 201.017V193.109C127.657 192.934 127.752 192.773 127.904 192.687L163.789 172.568C163.939 172.484 164.123 172.486 164.272 172.573C164.42 172.66 164.511 172.819 164.511 172.991V179.865C164.511 180.036 164.42 180.195 164.273 180.282L128.388 201.435C128.312 201.479 128.227 201.502 128.142 201.502ZM128.626 193.393V200.17L163.542 179.59V173.819L128.626 193.393Z" fill="#3A3A3A"/>
<path d="M128.142 112.05H62.1919V336.811H128.142V112.05Z" fill="white"/>
<path d="M128.142 337.294H62.192C61.9244 337.294 61.7073 337.077 61.7073 336.81V112.05C61.7073 111.783 61.9244 111.566 62.192 111.566H128.142C128.409 111.566 128.626 111.783 128.626 112.05V336.811C128.626 337.077 128.409 337.294 128.142 337.294ZM62.6767 336.326H127.657V112.534H62.6767V336.326Z" fill="#3A3A3A"/>
<path d="M128.142 329.059H62.1919V336.81H128.142V329.059Z" fill="white"/>
<path d="M128.142 337.294H62.192C61.9244 337.294 61.7073 337.077 61.7073 336.81V329.059C61.7073 328.792 61.9244 328.575 62.192 328.575H128.142C128.409 328.575 128.626 328.792 128.626 329.059V336.81C128.626 337.077 128.409 337.294 128.142 337.294ZM62.6767 336.326H127.657V329.544H62.6767V336.326Z" fill="#3A3A3A"/>
<path d="M128.235 112.05H120.476V336.811H128.235V112.05Z" fill="white"/>
<path d="M128.234 337.294H120.475C120.207 337.294 119.99 337.077 119.99 336.81V112.05C119.99 111.783 120.207 111.566 120.475 111.566H128.234C128.501 111.566 128.718 111.783 128.718 112.05V336.811C128.718 337.077 128.502 337.294 128.234 337.294ZM120.96 336.326H127.75V112.534H120.96V336.326Z" fill="#3A3A3A"/>
<path d="M69.9509 112.05H62.1919V336.811H69.9509V112.05Z" fill="white"/>
<path d="M69.95 337.294H62.192C61.9244 337.294 61.7073 337.077 61.7073 336.81V112.05C61.7073 111.783 61.9244 111.566 62.192 111.566H69.951C70.2185 111.566 70.4357 111.783 70.4357 112.05V336.811C70.4347 337.077 70.2185 337.294 69.95 337.294ZM62.6767 336.326H69.4663V112.534H62.6767V336.326Z" fill="#3A3A3A"/>
<path d="M58.3123 112.857V120.316H132.021V112.664L58.3123 112.857Z" fill="white"/>
<path d="M132.021 120.8H58.3123C58.0448 120.8 57.8276 120.583 57.8276 120.316V112.858C57.8276 112.59 58.0438 112.374 58.3114 112.373L132.02 112.181H132.021C132.15 112.181 132.273 112.231 132.364 112.322C132.455 112.413 132.506 112.536 132.506 112.665V120.316C132.506 120.583 132.289 120.8 132.021 120.8ZM58.797 119.832H131.536V113.15L58.797 113.34V119.832Z" fill="#3A3A3A"/>
<path d="M58.3125 112.857L114.172 101.562H169.095L132.021 112.664L58.3125 112.857Z" fill="white"/>
<path d="M58.3124 113.341C58.0633 113.341 57.8549 113.153 57.8306 112.906C57.8054 112.658 57.9722 112.432 58.2155 112.382L114.076 101.088L169.095 101.078C169.335 101.078 169.54 101.254 169.575 101.491C169.609 101.729 169.464 101.956 169.233 102.026L132.16 113.128C132.115 113.141 132.069 113.148 132.021 113.148L58.3124 113.341ZM114.173 102.046L63.2088 112.36L131.949 112.18L165.79 102.046H114.173Z" fill="#3A3A3A"/>
<path d="M130.081 235.496L164.026 211.572V244.775L130.081 264.936V235.496Z" fill="white"/>
<path d="M130.081 265.42C129.999 265.42 129.916 265.399 129.842 265.357C129.691 265.271 129.597 265.11 129.597 264.936V235.495C129.597 235.337 129.673 235.19 129.802 235.1L163.747 211.176C163.895 211.072 164.089 211.059 164.251 211.142C164.411 211.226 164.512 211.391 164.512 211.572V244.775C164.512 244.945 164.422 245.104 164.276 245.191L130.331 265.353C130.252 265.398 130.168 265.42 130.081 265.42ZM130.566 235.747V264.086L163.542 244.5V212.507L130.566 235.747Z" fill="#3A3A3A"/>
<path d="M132.094 120.316V332.766L128.214 336.81V120.316H132.094Z" fill="white"/>
<path d="M128.214 337.294C128.153 337.294 128.092 337.282 128.033 337.259C127.85 337.186 127.73 337.007 127.73 336.81V120.316C127.73 120.049 127.947 119.832 128.214 119.832H132.094C132.361 119.832 132.579 120.049 132.579 120.316V332.767C132.579 332.892 132.53 333.012 132.444 333.102L128.564 337.146C128.471 337.243 128.344 337.294 128.214 337.294ZM128.699 120.8V335.605L131.609 332.571V120.8H128.699Z" fill="#3A3A3A"/>
<path d="M166.935 102.618V296.696L164.026 299.705V103.483L166.935 102.618Z" fill="white"/>
<path d="M164.026 300.189C163.965 300.189 163.903 300.177 163.843 300.154C163.661 300.081 163.54 299.902 163.54 299.705V103.482C163.54 103.268 163.682 103.079 163.886 103.018L166.795 102.153C166.943 102.109 167.101 102.137 167.223 102.228C167.346 102.319 167.418 102.464 167.418 102.617V296.695C167.418 296.821 167.368 296.941 167.281 297.031L164.372 300.04C164.282 300.138 164.155 300.189 164.026 300.189ZM164.51 103.843V298.506L166.45 296.5V103.267L164.51 103.843Z" fill="#3A3A3A"/>
<path d="M128.142 336.81V329.059L166.935 289.936V296.696L128.142 336.81Z" fill="white"/>
<path d="M128.142 337.294C128.081 337.294 128.019 337.282 127.959 337.259C127.777 337.185 127.656 337.007 127.656 336.81V329.059C127.656 328.931 127.706 328.809 127.797 328.718L166.591 289.595C166.729 289.456 166.939 289.413 167.12 289.488C167.302 289.562 167.421 289.74 167.421 289.935V296.695C167.421 296.821 167.371 296.941 167.284 297.031L128.49 337.145C128.397 337.243 128.271 337.294 128.142 337.294ZM128.626 329.259V335.612L166.451 296.501V291.114L128.626 329.259Z" fill="#3A3A3A"/>
<path d="M169.095 108.267L132.021 120.316V112.664L169.095 101.562V108.267Z" fill="white"/>
<path d="M132.021 120.8C131.921 120.8 131.821 120.768 131.736 120.708C131.61 120.617 131.537 120.472 131.537 120.316V112.665C131.537 112.451 131.677 112.262 131.882 112.201L168.955 101.099C169.103 101.056 169.261 101.084 169.384 101.175C169.506 101.266 169.579 101.41 169.579 101.563V108.268C169.579 108.478 169.443 108.663 169.243 108.729L132.171 120.776C132.122 120.791 132.071 120.8 132.021 120.8ZM132.506 113.024V119.649L168.61 107.915V102.213L132.506 113.024Z" fill="#3A3A3A"/>
<path d="M137.971 229.917L143.042 226.342H194.144L190.293 229.917H137.971Z" fill="white"/>
<path d="M190.294 230.401H137.971C137.76 230.401 137.573 230.264 137.509 230.063C137.445 229.861 137.52 229.642 137.691 229.52L142.761 225.947C142.843 225.889 142.941 225.858 143.04 225.858H194.142C194.342 225.858 194.521 225.98 194.594 226.165C194.666 226.35 194.618 226.561 194.473 226.697L190.622 230.27C190.534 230.354 190.416 230.401 190.294 230.401ZM139.5 229.432H190.104L192.911 226.828H143.195L139.5 229.432Z" fill="#3A3A3A"/>
<path d="M137.971 229.935L132.021 234.129V248.832H190.293V229.935H137.971Z" fill="#3A3A3A"/>
<path d="M190.294 249.316H132.021C131.754 249.316 131.537 249.099 131.537 248.832V234.128C131.537 233.97 131.613 233.823 131.742 233.733L137.693 229.539C137.775 229.481 137.873 229.45 137.972 229.45H190.295C190.562 229.45 190.779 229.667 190.779 229.934V248.832C190.778 249.099 190.561 249.316 190.294 249.316ZM132.506 248.348H189.809V230.419H138.126L132.506 234.38V248.348Z" fill="#3A3A3A"/>
<path d="M175.705 248.832H132.021V278.199H175.705V248.832Z" fill="white"/>
<path d="M175.705 278.683H132.021C131.754 278.683 131.537 278.466 131.537 278.199V248.832C131.537 248.565 131.754 248.348 132.021 248.348H175.705C175.973 248.348 176.19 248.565 176.19 248.832V278.199C176.19 278.467 175.974 278.683 175.705 278.683ZM132.506 277.715H175.22V249.316H132.506V277.715Z" fill="#3A3A3A"/>
<path d="M132.021 248.775V244.718H176.634L172.837 248.775H132.021Z" fill="white"/>
<path d="M172.836 249.259H132.021C131.754 249.259 131.537 249.042 131.537 248.775V244.718C131.537 244.45 131.754 244.233 132.021 244.233H176.634C176.827 244.233 177.001 244.348 177.079 244.525C177.155 244.702 177.119 244.907 176.988 245.049L173.19 249.106C173.098 249.204 172.97 249.259 172.836 249.259ZM132.506 248.291H172.626L175.517 245.202H132.506V248.291Z" fill="#3A3A3A"/>
<path d="M178.573 241.712L199.91 223.27V256.682L178.573 278.2V241.712Z" fill="white"/>
<path d="M178.573 278.683C178.511 278.683 178.448 278.672 178.389 278.646C178.207 278.572 178.089 278.395 178.089 278.199V241.712C178.089 241.572 178.15 241.438 178.256 241.346L199.593 222.904C199.735 222.78 199.939 222.751 200.111 222.829C200.284 222.909 200.394 223.08 200.394 223.27V256.682C200.394 256.809 200.344 256.931 200.254 257.022L178.917 278.54C178.825 278.634 178.7 278.683 178.573 278.683ZM179.058 241.934V277.023L199.425 256.483V224.329L179.058 241.934Z" fill="#3A3A3A"/>
<path d="M178.573 241.712H172.836V278.2H178.573V241.712Z" fill="white"/>
<path d="M178.573 278.683H172.836C172.568 278.683 172.351 278.466 172.351 278.199V241.712C172.351 241.445 172.568 241.228 172.836 241.228H178.573C178.841 241.228 179.058 241.445 179.058 241.712V278.199C179.058 278.467 178.842 278.683 178.573 278.683ZM173.32 277.715H178.089V242.196H173.32V277.715Z" fill="#3A3A3A"/>
<path d="M199.91 223.27H194.584L172.836 241.712H178.573L199.91 223.27Z" fill="white"/>
<path d="M178.573 242.196H172.835C172.632 242.196 172.451 242.069 172.38 241.878C172.309 241.688 172.366 241.474 172.521 241.343L194.27 222.901C194.357 222.826 194.468 222.786 194.583 222.786H199.909C200.111 222.786 200.293 222.911 200.363 223.1C200.433 223.29 200.38 223.503 200.226 223.636L178.889 242.078C178.802 242.154 178.69 242.196 178.573 242.196ZM174.156 241.228H178.393L198.609 223.754H194.761L174.156 241.228Z" fill="#3A3A3A"/>
<path d="M469.599 262.908L476.73 310.202C476.73 312.173 484.113 313.772 493.22 313.772C502.326 313.772 509.709 312.173 509.709 310.202L516.84 262.908H469.599Z" fill="white"/>
<path d="M493.219 314.217C484.803 314.217 476.285 312.838 476.285 310.201L469.158 262.974C469.14 262.845 469.177 262.714 469.262 262.616C469.346 262.518 469.469 262.461 469.599 262.461H516.839C516.969 262.461 517.092 262.517 517.177 262.616C517.261 262.714 517.299 262.845 517.28 262.974L510.149 310.268C510.154 312.838 501.635 314.217 493.219 314.217ZM470.117 263.354L477.17 310.135C477.175 311.506 483.278 313.326 493.219 313.326C503.159 313.326 509.263 311.506 509.263 310.202L516.321 263.354H470.117Z" fill="#3A3A3A"/>
<path d="M493.219 269.154C507.249 269.154 518.621 266.757 518.621 263.8C518.621 260.843 507.249 258.445 493.219 258.445C479.19 258.445 467.817 260.843 467.817 263.8C467.817 266.757 479.19 269.154 493.219 269.154Z" fill="white"/>
<path d="M493.219 269.6C480.688 269.6 467.371 267.567 467.371 263.8C467.371 260.032 480.688 257.999 493.219 257.999C505.749 257.999 519.067 260.032 519.067 263.8C519.067 267.567 505.749 269.6 493.219 269.6ZM493.219 258.891C478.511 258.891 468.262 261.478 468.262 263.8C468.262 266.121 478.511 268.708 493.219 268.708C507.926 268.708 518.176 266.121 518.176 263.8C518.176 261.478 507.926 258.891 493.219 258.891Z" fill="#3A3A3A"/>
<path d="M493.22 270.939C505.465 270.939 515.391 269.191 515.391 267.035C515.391 264.879 505.465 263.131 493.22 263.131C480.974 263.131 471.048 264.879 471.048 267.035C471.048 269.191 480.974 270.939 493.22 270.939Z" fill="#3A3A3A"/>
<path d="M493.219 271.384C484.127 271.384 470.603 270.225 470.603 267.034C470.603 263.842 484.128 262.684 493.219 262.684C502.309 262.684 515.836 263.842 515.836 267.034C515.836 270.225 502.31 271.384 493.219 271.384ZM493.219 263.577C479.758 263.577 471.493 265.591 471.493 267.035C471.493 268.479 479.758 270.493 493.219 270.493C506.679 270.493 514.945 268.479 514.945 267.035C514.945 265.591 506.68 263.577 493.219 263.577Z" fill="#3A3A3A"/>
<path d="M513.282 286.501L512.543 291.401C509.378 293.007 501.919 294.14 493.219 294.14C484.52 294.14 477.06 293.006 473.896 291.401L473.156 286.501C475.75 288.339 483.746 289.678 493.22 289.678C502.695 289.678 510.689 288.339 513.282 286.501Z" fill="white"/>
<path d="M493.219 294.585C484.694 294.585 477.03 293.491 473.694 291.798C473.566 291.733 473.476 291.61 473.455 291.467L472.715 286.569C472.688 286.392 472.769 286.216 472.921 286.123C473.074 286.029 473.267 286.035 473.412 286.138C475.983 287.96 484.128 289.233 493.218 289.233C502.308 289.233 510.453 287.96 513.024 286.138C513.17 286.035 513.364 286.028 513.515 286.123C513.667 286.216 513.748 286.392 513.722 286.569L512.981 291.467C512.96 291.61 512.871 291.733 512.743 291.798C509.409 293.491 501.744 294.585 493.219 294.585ZM474.301 291.102C477.627 292.68 484.997 293.694 493.22 293.694C501.442 293.694 508.812 292.68 512.138 291.102L512.703 287.358C509.362 289.031 501.807 290.123 493.22 290.123C484.632 290.123 477.078 289.031 473.736 287.358L474.301 291.102Z" fill="#3A3A3A"/>
<path d="M514.495 278.461L513.764 283.307C510.119 284.967 502.293 286.109 493.22 286.109C484.146 286.109 476.32 284.966 472.675 283.307L471.944 278.461C475.18 280.326 483.487 281.647 493.22 281.647C502.953 281.647 511.259 280.326 514.495 278.461Z" fill="white"/>
<path d="M493.219 286.555C484.283 286.555 476.34 285.466 472.489 283.712C472.352 283.65 472.256 283.522 472.233 283.373L471.502 278.528C471.477 278.359 471.55 278.19 471.692 278.093C471.834 277.997 472.017 277.989 472.165 278.074C475.41 279.944 483.87 281.2 493.218 281.2C502.567 281.2 511.027 279.945 514.271 278.074C514.42 277.989 514.605 277.996 514.744 278.093C514.886 278.189 514.959 278.359 514.934 278.528L514.204 283.373C514.181 283.522 514.084 283.65 513.947 283.712C510.098 285.466 502.155 286.555 493.219 286.555ZM473.078 282.998C476.855 284.62 484.704 285.663 493.219 285.663C501.734 285.663 509.583 284.62 513.359 282.998L513.924 279.252C510.106 280.992 502.181 282.093 493.218 282.093C484.254 282.093 476.329 280.992 472.512 279.252L473.078 282.998Z" fill="#3A3A3A"/>
<path d="M496.561 224.751C496.312 229.846 496.009 234.781 495.688 239.43V239.466C495.421 243.374 495.136 247.078 494.86 250.495C494.69 252.619 494.521 254.627 494.352 256.51C494.191 258.41 494.031 260.177 493.88 261.793C493.862 262.007 493.835 262.221 493.817 262.426C493.808 262.515 493.799 262.595 493.799 262.685C493.764 262.97 493.737 263.246 493.719 263.523C493.675 263.907 493.639 264.281 493.603 264.648C493.541 265.299 493.479 265.924 493.425 266.504H492.57C492.552 266.299 492.543 266.085 492.525 265.871C492.517 265.728 492.499 265.585 492.49 265.442V265.416C492.481 265.237 492.463 265.05 492.445 264.872C492.321 263.337 492.169 261.793 491.973 260.241C491.759 258.429 491.501 256.609 491.206 254.77C489.156 242.099 485.404 228.892 481.696 214.847C478.897 204.236 476.116 193.145 474.12 181.437C468.646 149.436 468.771 134.168 478.593 132.009C479.412 131.822 480.304 131.732 481.258 131.732C488.191 131.732 495.171 141.611 496.998 180.508C497.131 183.355 497.22 186.282 497.274 189.263C497.489 200.844 497.141 213.204 496.561 224.751Z" fill="white"/>
<path d="M493.424 266.95H492.569C492.338 266.95 492.145 266.773 492.125 266.542L492.044 265.47C492.035 265.266 492.019 265.086 492.002 264.915C491.864 263.227 491.71 261.719 491.53 260.295C491.325 258.552 491.074 256.768 490.766 254.84C489.021 244.053 486.046 232.903 482.897 221.099C482.356 219.069 481.81 217.023 481.265 214.959C478.072 202.855 475.559 192.534 473.68 181.511C468.576 151.677 467.729 133.941 478.497 131.574C479.329 131.384 480.26 131.287 481.258 131.287C490.465 131.287 495.91 147.84 497.443 180.487C497.571 183.206 497.664 186.155 497.72 189.254C497.911 199.584 497.671 211.535 497.007 224.773C496.777 229.455 496.491 234.26 496.133 239.461C495.898 242.915 495.635 246.421 495.303 250.531C495.133 252.656 494.964 254.665 494.795 256.55C494.634 258.45 494.474 260.218 494.322 261.835L494.26 262.465C494.25 262.564 494.244 262.622 494.244 262.686C494.207 263.017 494.181 263.285 494.163 263.554C494.121 263.921 494.088 264.258 494.056 264.588L493.868 266.547C493.847 266.774 493.654 266.95 493.424 266.95ZM492.983 266.058H493.019L493.169 264.5C493.202 264.164 493.235 263.822 493.276 263.471C493.292 263.209 493.319 262.924 493.356 262.629C493.352 262.591 493.36 262.505 493.369 262.414L493.434 261.755C493.586 260.137 493.746 258.371 493.906 256.472C494.076 254.588 494.245 252.582 494.414 250.459C494.746 246.353 495.008 242.85 495.243 239.435C495.601 234.204 495.887 229.405 496.116 224.729C496.779 211.51 497.019 199.581 496.828 189.27C496.773 186.179 496.68 183.239 496.552 180.529C495.047 148.446 489.9 132.178 481.258 132.178C480.326 132.178 479.462 132.268 478.693 132.444C469.796 134.399 468.715 147.2 474.557 181.361C476.431 192.353 478.938 202.651 482.125 214.732C482.67 216.795 483.216 218.84 483.756 220.868C486.912 232.695 489.892 243.866 491.644 254.698C491.955 256.639 492.207 258.435 492.413 260.187C492.594 261.622 492.749 263.142 492.887 264.835C492.905 265.013 492.924 265.208 492.933 265.394L492.983 266.058Z" fill="#3A3A3A"/>
<path d="M492.39 266.504H492.568H492.648H492.853H492.996H493.076H493.13H493.21H493.281H493.424H493.628H494.011L493.958 265.594L493.878 264.184L493.842 263.444L493.798 262.686L493.789 262.596L493.664 260.375V260.303L493.138 251.094C493.138 251.058 493.13 251.023 493.13 250.987C492.729 245.321 492.381 239.645 491.944 233.979C491.783 232.087 491.641 230.186 491.48 228.295C491.186 224.484 490.884 220.683 490.508 216.881L489.725 208.342L488.834 199.812C487.612 188.443 486.249 177.083 484.591 165.768C483.754 160.111 482.88 154.462 481.891 148.832C480.919 143.199 479.868 137.586 478.593 132.009C479.796 137.604 480.767 143.226 481.668 148.865C482.586 154.505 483.38 160.163 484.155 165.829C485.652 177.153 486.882 188.522 487.952 199.899L488.727 208.429L489.404 216.978C489.885 222.662 490.206 228.373 490.607 234.066C490.83 237.538 491.017 241.009 491.204 244.479C491.293 246.023 491.374 247.558 491.463 249.101C491.463 249.182 491.463 249.262 491.472 249.333C491.507 249.949 491.543 250.565 491.578 251.181L491.668 253.26C491.676 253.277 491.676 253.304 491.676 253.322L491.819 256.749L491.97 260.238L492.149 264.236L492.175 264.753V264.762L492.184 264.967L492.247 266.502H492.39V266.504Z" fill="#3A3A3A"/>
<path d="M523.969 173.254C522.997 175.69 520.618 181.981 517.597 190.333C517.597 190.342 517.597 190.342 517.597 190.342C512.365 204.825 505.198 225.5 500.092 243.027C499.673 244.455 499.272 245.856 498.888 247.23C498.888 247.23 498.888 247.23 498.888 247.238C497.275 252.985 495.929 258.286 495.029 262.765C495.029 262.774 495.02 262.774 495.02 262.783C494.806 263.836 494.619 264.844 494.45 265.8C494.423 265.942 494.405 266.094 494.378 266.237C494.36 266.326 494.352 266.415 494.334 266.504H492.854C492.827 266.361 492.818 266.219 492.801 266.076C492.792 266.023 492.783 265.969 492.774 265.907C492.685 265.122 492.587 264.265 492.498 263.355C492.302 261.508 492.106 259.42 491.936 257.117C491.847 255.912 491.758 254.646 491.678 253.325C491.678 253.307 491.678 253.28 491.669 253.263C491.598 252.004 491.527 250.693 491.473 249.336C491.464 249.265 491.464 249.185 491.464 249.104C491.402 247.828 491.357 246.508 491.322 245.142C491.322 245.134 491.322 245.125 491.322 245.125C491.188 239.975 491.206 234.3 491.482 228.295C492.043 216.141 493.674 202.622 497.275 189.264C498.907 183.205 500.939 177.182 503.47 171.328C511.84 151.964 517.73 145.253 523.078 145.253C524.22 145.253 525.164 145.467 525.948 145.851C533.105 149.383 526.215 167.668 523.969 173.254Z" fill="white"/>
<path d="M494.333 266.95H492.853C492.639 266.95 492.455 266.798 492.416 266.587C492.395 266.479 492.384 266.371 492.372 266.262L492.332 265.968C492.332 265.964 492.321 265.873 492.32 265.869C492.233 265.106 492.14 264.277 492.053 263.397C491.828 261.274 491.643 259.229 491.491 257.149C491.402 255.944 491.313 254.677 491.233 253.356C491.227 253.333 491.225 253.31 491.223 253.286C491.151 252.025 491.08 250.711 491.027 249.351C491.019 249.302 491.017 249.202 491.017 249.102C490.955 247.844 490.91 246.52 490.875 245.151C490.728 239.463 490.782 233.79 491.036 228.271C491.686 214.193 493.641 201.028 496.844 189.144C498.559 182.774 500.65 176.72 503.06 171.147C510.935 152.928 517.109 144.804 523.079 144.804C524.24 144.804 525.271 145.021 526.144 145.447C533.03 148.847 527.996 164.431 524.383 173.418C523.379 175.935 520.963 182.335 518.029 190.446C518.025 190.462 518.021 190.477 518.016 190.491C513.859 201.996 506.059 224.136 500.518 243.149C500.103 244.564 499.705 245.953 499.326 247.314C499.323 247.328 499.32 247.343 499.317 247.356C497.57 253.58 496.31 258.648 495.465 262.851C495.458 262.886 495.447 262.919 495.431 262.953C495.225 264.021 495.047 264.972 494.888 265.875L494.77 266.59C494.729 266.799 494.546 266.95 494.333 266.95ZM493.245 266.058H493.956L494.011 265.717C494.181 264.762 494.369 263.751 494.583 262.694C494.59 262.659 494.603 262.623 494.619 262.589C495.474 258.322 496.726 253.296 498.451 247.15C498.453 247.136 498.456 247.122 498.46 247.109C498.844 245.734 499.244 244.331 499.665 242.9C505.205 223.885 513.002 201.753 517.166 190.227C517.169 190.211 517.174 190.195 517.179 190.181C520.123 182.044 522.549 175.616 523.557 173.088C526.374 166.082 532.225 149.445 525.752 146.25C525.004 145.884 524.104 145.697 523.08 145.697C517.514 145.697 511.592 153.656 503.879 171.503C501.486 177.035 499.409 183.05 497.706 189.378C494.519 201.201 492.574 214.3 491.928 228.314C491.675 233.81 491.621 239.463 491.767 245.112C491.803 246.492 491.846 247.809 491.91 249.081C491.91 249.164 491.909 249.225 491.916 249.278C491.972 250.665 492.042 251.969 492.114 253.221C492.121 253.259 492.124 253.296 492.124 253.324C492.204 254.616 492.293 255.88 492.382 257.083C492.534 259.155 492.717 261.19 492.942 263.306C493.029 264.184 493.122 265.009 493.209 265.768L493.245 266.058Z" fill="#3A3A3A"/>
<path d="M525.948 145.849C520.404 154.978 515.886 164.696 511.928 174.6C508.007 184.523 504.61 194.661 502.026 205.012C499.424 215.345 497.285 225.812 496.072 236.395L495.689 239.43V239.465L495.573 240.366L495.324 242.347L495.181 244.337L494.584 252.305C494.567 252.502 494.549 252.689 494.531 252.885C494.433 254.09 494.379 255.303 494.353 256.508C494.326 257.704 494.308 258.899 494.281 260.096C494.273 260.158 494.273 260.22 494.273 260.283L494.246 261.524L494.201 263.986L494.175 265.013V265.343L494.148 266.503H492.392L492.427 265.441V265.298L492.445 264.87L492.499 263.353L492.606 260.22C492.615 259.98 492.623 259.73 492.632 259.489C492.686 257.865 492.721 256.25 492.819 254.634C492.873 253.823 492.935 253.01 493.024 252.198L493.131 250.984L493.737 244.193L493.915 242.194L494.191 240.205L494.744 236.225C495.243 232.379 495.849 228.551 496.562 224.749C497.828 218.029 499.405 211.373 501.161 204.779C503.898 194.428 507.444 184.317 511.518 174.43C515.618 164.571 520.28 154.907 525.948 145.849Z" fill="#3A3A3A"/>
<path d="M492.39 266.504H492.568H492.649H492.854H492.996H493.076H493.13H493.21H493.281H493.424H493.629H494.012H494.145H494.332H494.43H494.555C494.519 266.263 494.484 266.031 494.448 265.799C494.404 265.425 494.35 265.059 494.297 264.692C494.261 264.452 494.225 264.22 494.199 263.988C494.127 263.533 494.065 263.087 494.003 262.649C493.967 262.417 493.931 262.185 493.905 261.962C493.896 261.909 493.887 261.846 493.878 261.793C493.807 261.311 493.735 260.838 493.664 260.374V260.302C493.37 258.295 493.094 256.412 492.818 254.636C492.292 251.075 491.792 247.943 491.32 245.141C491.32 245.132 491.32 245.123 491.32 245.123C491.276 244.909 491.24 244.695 491.204 244.481C488.896 231.114 486.846 225.224 481.694 214.846C480.295 212.018 478.663 208.858 476.729 205.119C470.981 193.992 466.034 188.7 460.687 188.7C460.037 188.7 459.519 188.86 459.109 189.155C455.562 191.671 460.348 204.298 465.143 213.81C469.341 222.145 476.098 235.298 482.167 247.05C484.939 252.422 487.569 257.508 489.743 261.711C490.661 263.478 491.499 265.094 492.23 266.504H492.248H492.39Z" fill="white"/>
<path d="M494.556 266.95H492.248C492.081 266.95 491.911 266.857 491.834 266.709L489.348 261.918C487.173 257.714 484.543 252.627 481.771 247.255C477.527 239.039 469.672 223.793 464.745 214.011C462.922 210.395 454.07 192.182 458.851 188.791C459.347 188.435 459.965 188.254 460.687 188.254C466.103 188.254 471.173 193.392 477.126 204.914C479.18 208.884 480.738 211.907 482.094 214.648C487.087 224.705 489.279 230.712 491.644 244.405C491.68 244.618 491.715 244.825 491.758 245.033C491.764 245.062 491.766 245.092 491.766 245.123C492.279 248.144 492.769 251.253 493.259 254.571C493.535 256.344 493.812 258.229 494.106 260.238C494.109 260.26 494.11 260.352 494.11 260.375L494.32 261.729C494.32 261.732 494.347 261.906 494.348 261.91C494.374 262.127 494.409 262.354 494.444 262.58L494.471 262.774C494.525 263.149 494.579 263.531 494.64 263.919C494.665 264.133 494.694 264.329 494.724 264.531L494.738 264.628C494.793 264.999 494.847 265.369 494.892 265.748L494.997 266.44C495.016 266.568 494.978 266.698 494.893 266.797C494.809 266.894 494.686 266.95 494.556 266.95ZM492.501 266.058H494.038L494.012 265.882C493.963 265.481 493.91 265.119 493.857 264.757L493.843 264.66C493.812 264.449 493.782 264.244 493.758 264.038C493.699 263.662 493.644 263.276 493.59 262.897L493.563 262.711C493.528 262.477 493.491 262.241 493.464 262.014C493.464 262.012 493.44 261.859 493.439 261.856L493.225 260.44C493.221 260.417 493.22 260.323 493.22 260.301C492.93 258.359 492.655 256.478 492.378 254.703C491.889 251.387 491.399 248.285 490.881 245.214C490.879 245.204 490.878 245.191 490.877 245.178C490.835 244.971 490.801 244.763 490.766 244.556C488.402 230.867 486.328 225.181 481.296 215.043C479.943 212.308 478.386 209.289 476.335 205.323C470.554 194.135 465.728 189.146 460.686 189.146C460.147 189.146 459.717 189.267 459.368 189.517C456.328 191.674 460.278 203.171 465.54 213.61C470.466 223.388 478.319 238.63 482.563 246.846C485.335 252.218 487.964 257.304 490.138 261.507L492.501 266.058Z" fill="#3A3A3A"/>
<path d="M527.535 208.019C523.016 216.175 518.408 224.555 513.229 234.138C512.079 236.253 510.903 238.439 509.681 240.706C509.396 241.241 509.111 241.786 508.817 242.33C504.949 249.558 500.733 257.5 496.018 266.504H493.129C493.218 265.308 493.325 263.97 493.459 262.506C493.521 261.819 493.593 261.105 493.664 260.374V260.302C493.896 258.045 494.181 255.555 494.528 252.887C494.635 252.102 494.742 251.307 494.858 250.495C496.988 235.397 501.257 215.641 509.707 201.256C512.265 196.901 514.975 193.198 517.595 190.342C517.595 190.342 517.595 190.342 517.595 190.333C521.348 186.228 524.904 183.873 527.533 183.873C528.906 183.873 530.002 184.105 530.876 184.533C537.945 187.941 529.914 203.718 527.535 208.019Z" fill="white"/>
<path d="M496.018 266.95H493.13C493.006 266.95 492.887 266.898 492.803 266.807C492.719 266.716 492.676 266.594 492.685 266.471C492.774 265.273 492.882 263.932 493.016 262.466C493.065 261.924 493.12 261.364 493.176 260.792L493.221 260.331C493.473 257.807 493.764 255.308 494.087 252.83L494.137 252.465C494.228 251.797 494.32 251.121 494.418 250.432C496.453 236.008 500.691 215.727 509.323 201.029C511.802 196.81 514.533 193.028 517.225 190.087C517.237 190.067 517.251 190.049 517.267 190.032C521.161 185.772 524.807 183.426 527.533 183.426C528.945 183.426 530.103 183.657 531.072 184.132C532.396 184.77 533.31 185.851 533.784 187.341C535.713 193.413 529.786 204.868 527.923 208.235C522.55 217.932 518.14 225.986 513.62 234.35C512.6 236.226 511.56 238.157 510.487 240.149L509.771 241.488C509.585 241.838 509.399 242.19 509.208 242.541C504.818 250.745 500.633 258.651 496.412 266.71C496.335 266.857 496.184 266.95 496.018 266.95ZM493.61 266.058H495.748C499.926 258.08 504.074 250.247 508.423 242.119C508.614 241.768 508.799 241.418 508.983 241.071L509.703 239.726C510.777 237.732 511.818 235.801 512.837 233.925C517.357 225.56 521.77 217.503 527.145 207.803C528.439 205.464 534.804 193.492 532.935 187.612C532.534 186.347 531.797 185.471 530.684 184.934C529.849 184.525 528.791 184.318 527.535 184.318C525.071 184.318 521.675 186.544 517.968 190.587C517.955 190.607 517.941 190.626 517.926 190.644C515.262 193.546 512.554 197.293 510.093 201.481C501.533 216.053 497.325 236.212 495.301 250.557C495.203 251.245 495.111 251.918 495.02 252.584L494.971 252.947C494.649 255.415 494.359 257.906 494.109 260.347L494.063 260.878C494.007 261.447 493.953 262.004 493.904 262.546C493.788 263.815 493.692 264.989 493.61 266.058Z" fill="#3A3A3A"/>
<path d="M494.431 266.504H492.648C492.613 266.299 492.568 266.085 492.524 265.871C492.488 265.728 492.461 265.585 492.426 265.442C492.417 265.398 492.408 265.353 492.39 265.3C492.381 265.246 492.372 265.202 492.354 265.148C492.292 264.845 492.23 264.542 492.149 264.238C490.866 258.634 489.208 253.093 487.345 247.632C484.956 240.832 482.211 234.139 479.279 227.536C476.311 220.95 473.12 214.463 469.76 208.056C466.39 201.657 462.879 195.33 459.109 189.155C463.004 195.258 466.649 201.514 470.152 207.85C473.646 214.185 476.979 220.62 480.09 227.16C483.166 233.727 486.062 240.376 488.603 247.185C489.521 249.692 490.394 252.218 491.205 254.77C491.419 255.43 491.624 256.091 491.82 256.751C491.864 256.876 491.9 256.991 491.936 257.116C492.176 257.901 492.408 258.696 492.631 259.49C492.925 260.49 493.192 261.497 493.459 262.506C493.53 262.783 493.602 263.05 493.664 263.327C493.691 263.389 493.709 263.461 493.717 263.523C493.744 263.603 493.762 263.675 493.771 263.755C493.815 263.898 493.851 264.04 493.878 264.183C493.967 264.504 494.047 264.825 494.118 265.155C494.136 265.218 494.154 265.28 494.172 265.343C494.243 265.637 494.314 265.931 494.377 266.235C494.404 266.326 494.422 266.415 494.431 266.504Z" fill="#3A3A3A"/>
<path d="M530.877 184.533C526.839 191.056 523.042 197.731 519.388 204.468C515.724 211.214 512.239 218.049 509.031 225.01C506.134 231.283 503.371 237.646 501.045 244.15C500.787 244.846 500.546 245.543 500.306 246.247C498.764 250.753 497.346 255.314 496.286 259.936C496.277 259.945 496.277 259.954 496.277 259.963C495.778 262.131 495.359 264.308 495.047 266.503H493.282C493.38 265.879 493.487 265.262 493.603 264.647C493.656 264.344 493.719 264.049 493.772 263.755C493.799 263.648 493.817 263.541 493.843 263.443C493.888 263.175 493.941 262.908 494.004 262.649C494.075 262.274 494.164 261.9 494.244 261.524C495.198 257.304 496.463 253.181 497.872 249.12C498.255 248.004 498.648 246.898 499.049 245.792C499.387 244.863 499.735 243.944 500.091 243.026C502.506 236.753 505.297 230.649 508.228 224.625C511.58 217.709 515.207 210.928 518.995 204.253C522.793 197.579 526.715 190.975 530.877 184.533Z" fill="#3A3A3A"/>
<path d="M511.491 247.604C505.43 252.709 499.824 260.882 496.365 266.504H493.21C493.334 265.504 493.486 264.434 493.664 263.327C493.709 263.086 493.744 262.845 493.789 262.596C493.798 262.542 493.807 262.489 493.816 262.426C493.851 262.274 493.878 262.123 493.905 261.962C494.02 261.347 494.145 260.731 494.279 260.097C495.064 256.367 496.222 252.459 497.871 249.121C498.183 248.47 498.521 247.836 498.887 247.238C498.887 247.229 498.887 247.229 498.887 247.229C499.207 246.685 499.547 246.167 499.903 245.677C500.277 245.15 500.66 244.641 501.044 244.15C505.144 238.903 509.529 235.647 513.228 234.139C514.895 233.452 516.428 233.121 517.729 233.121C518.674 233.121 519.342 233.362 519.752 233.808C521.679 235.825 518.096 242.045 511.491 247.604Z" fill="white"/>
<path d="M496.365 266.95H493.21C493.082 266.95 492.96 266.895 492.876 266.799C492.791 266.704 492.752 266.576 492.768 266.449C492.894 265.444 493.046 264.368 493.225 263.257L493.375 262.365C493.416 262.182 493.441 262.04 493.465 261.889C493.583 261.26 493.709 260.641 493.843 260.005C494.751 255.688 495.972 251.959 497.472 248.923C497.791 248.258 498.13 247.626 498.479 247.051C498.487 247.034 498.495 247.017 498.503 247.002C498.83 246.449 499.179 245.915 499.543 245.413C499.918 244.885 500.306 244.371 500.693 243.875C504.471 239.041 508.863 235.436 513.061 233.725C514.728 233.038 516.343 232.675 517.73 232.675C518.784 232.675 519.574 232.954 520.081 233.506C520.543 233.99 520.757 234.67 520.712 235.521C520.544 238.596 516.954 243.589 511.778 247.946C505.822 252.961 500.316 260.933 496.745 266.738C496.664 266.869 496.52 266.95 496.365 266.95ZM493.717 266.058H496.118C499.726 260.217 505.232 252.294 511.205 247.263C516.126 243.12 519.67 238.273 519.823 235.473C519.855 234.878 519.724 234.422 519.432 234.116C519.096 233.75 518.525 233.567 517.731 233.567C516.459 233.567 514.961 233.907 513.399 234.551C509.341 236.205 505.079 239.711 501.396 244.425C501.017 244.91 500.637 245.413 500.267 245.934C499.927 246.403 499.602 246.899 499.298 247.411C499.289 247.432 499.279 247.452 499.268 247.47C498.925 248.032 498.59 248.652 498.274 249.313C496.805 252.287 495.608 255.944 494.716 260.188C494.583 260.819 494.459 261.432 494.344 262.044C494.317 262.206 494.289 262.366 494.251 262.528L494.104 263.408C493.956 264.318 493.827 265.21 493.717 266.058Z" fill="#3A3A3A"/>
<path d="M492.39 266.504H492.568H492.648H492.853H492.996C492.925 266.361 492.862 266.228 492.8 266.076C492.711 265.889 492.622 265.701 492.524 265.505C492.515 265.478 492.497 265.452 492.488 265.416C492.47 265.38 492.452 265.345 492.426 265.3C492.408 265.255 492.381 265.202 492.354 265.148C492.301 265.023 492.239 264.89 492.176 264.765V264.756C489.708 259.571 486.16 252.745 482.167 247.052C481.846 246.579 481.517 246.124 481.186 245.677C477.621 240.849 474.876 239.886 472.273 239.886C471.31 239.886 470.606 240.145 470.143 240.609C467.576 243.134 471.925 251.674 477.621 256.296C481.667 259.589 486.81 263.274 490.581 266.504H492.114H492.23H492.248H492.39Z" fill="white"/>
<path d="M492.996 266.95H490.581C490.475 266.95 490.372 266.913 490.291 266.843C488.147 265.006 485.512 262.987 482.964 261.035C481.054 259.571 479.08 258.057 477.34 256.642C472.899 253.037 469.135 246.956 468.95 243.086C468.892 241.864 469.188 240.923 469.831 240.291C470.393 239.727 471.216 239.44 472.274 239.44C474.677 239.44 477.658 240.149 481.544 245.413C481.878 245.863 482.212 246.323 482.535 246.801C486.614 252.616 490.248 259.671 492.578 264.564C492.586 264.58 492.592 264.596 492.598 264.612C492.656 264.731 492.713 264.856 492.764 264.973C492.792 265.026 492.82 265.084 492.84 265.134C492.839 265.126 492.864 265.171 492.887 265.216C492.901 265.245 492.912 265.274 492.92 265.305C492.927 265.311 492.939 265.34 492.948 265.367C493.022 265.504 493.113 265.694 493.203 265.885C493.27 266.046 493.328 266.171 493.395 266.305C493.464 266.443 493.456 266.607 493.375 266.739C493.293 266.87 493.151 266.95 492.996 266.95ZM490.745 266.058H492.298C492.244 265.946 492.187 265.827 492.125 265.705C492.104 265.658 492.089 265.623 492.077 265.593L492.043 265.528C492 265.435 491.981 265.4 491.963 265.363C491.895 265.207 491.836 265.081 491.778 264.965C491.768 264.944 491.759 264.923 491.752 264.902C489.436 260.042 485.837 253.06 481.802 247.308C481.481 246.834 481.154 246.384 480.828 245.942C477.177 240.998 474.455 240.331 472.273 240.331C471.46 240.331 470.85 240.53 470.457 240.923C470 241.373 469.793 242.085 469.839 243.043C470.01 246.631 473.702 252.541 477.901 255.949C479.631 257.357 481.6 258.866 483.505 260.326C486.015 262.248 488.606 264.234 490.745 266.058Z" fill="#3A3A3A"/>
<path d="M519.754 233.809C516.42 235.397 513.506 237.717 510.858 240.233C510.155 240.911 509.477 241.608 508.817 242.33C507.008 244.311 505.359 246.453 503.843 248.665L502.364 250.976C501.865 251.744 501.464 252.565 501 253.359C500.072 254.938 499.342 256.616 498.558 258.258C498.139 259.079 497.836 259.936 497.488 260.783L496.48 263.335C496.115 264.388 495.776 265.441 495.429 266.503H493.628C493.744 266.2 493.851 265.897 493.958 265.593C494.02 265.442 494.074 265.299 494.118 265.156C494.145 265.103 494.163 265.058 494.172 265.014C494.216 264.907 494.252 264.8 494.297 264.693C494.528 264.05 494.769 263.416 495.018 262.783C495.018 262.774 495.027 262.774 495.027 262.765L496.159 260.213C496.195 260.133 496.231 260.053 496.275 259.964C496.275 259.955 496.275 259.946 496.284 259.937C496.623 259.179 496.935 258.411 497.344 257.688C498.217 256.037 499.029 254.368 500.036 252.798C500.535 252.013 500.972 251.191 501.516 250.433L503.111 248.149C505.09 245.49 507.264 242.964 509.68 240.707C509.965 240.439 510.259 240.172 510.553 239.913C513.336 237.475 516.358 235.262 519.754 233.809Z" fill="#3A3A3A"/>
<path d="M492.39 266.504H492.568H492.648H492.853H492.996H493.076L492.862 266.058C492.836 266.005 492.809 265.951 492.773 265.906C492.702 265.764 492.613 265.639 492.524 265.505C492.515 265.487 492.497 265.469 492.488 265.443C492.47 265.416 492.444 265.389 492.426 265.353C492.417 265.336 492.408 265.318 492.39 265.3C492.346 265.237 492.31 265.175 492.265 265.104C492.239 265.059 492.212 265.014 492.185 264.97C491.811 264.372 491.383 263.836 490.973 263.283C490.572 262.748 490.162 262.23 489.742 261.713C489.243 261.079 488.726 260.463 488.2 259.848C486.302 257.599 484.332 255.431 482.344 253.271C478.36 248.97 474.278 244.759 470.143 240.609C474.18 244.856 478.146 249.175 482.015 253.575C483.949 255.77 485.856 257.991 487.683 260.277C488.61 261.41 489.502 262.57 490.348 263.748C490.758 264.337 491.194 264.926 491.552 265.542C491.73 265.854 491.944 266.157 492.095 266.46L492.113 266.505H492.229H492.247H492.39V266.504Z" fill="#3A3A3A"/>
<path d="M499.626 265.292C499.626 266.545 498.013 269.143 493.22 269.143C488.427 269.143 486.813 266.545 486.813 265.292C486.813 264.039 488.711 265.222 493.504 265.222C498.297 265.222 499.626 264.039 499.626 265.292Z" fill="#3A3A3A"/>
<path d="M493.219 269.59C488.042 269.59 486.368 266.695 486.368 265.293C486.368 264.827 486.571 264.271 487.537 264.271C487.899 264.271 488.37 264.337 488.964 264.42C490.038 264.57 491.508 264.776 493.503 264.776C495.563 264.776 496.976 264.553 497.912 264.405C498.409 264.327 498.769 264.27 499.058 264.27C499.72 264.27 500.07 264.623 500.07 265.292C500.07 266.694 498.396 269.59 493.219 269.59ZM487.263 265.195C487.265 265.201 487.259 265.233 487.259 265.292C487.259 266.359 488.76 268.697 493.219 268.697C497.678 268.697 499.18 266.359 499.18 265.292C499.18 265.228 499.175 265.188 499.171 265.163C499.156 265.166 499.116 265.162 499.059 265.162C498.839 265.162 498.492 265.217 498.052 265.286C497.089 265.437 495.634 265.667 493.504 265.667C491.447 265.667 489.94 265.456 488.841 265.302C487.943 265.177 487.32 265.171 487.263 265.195Z" fill="#3A3A3A"/>
<path d="M518.622 270.939C518.622 273.896 507.249 276.293 493.22 276.293C479.191 276.293 467.818 273.896 467.818 270.939V263.8C467.818 266.757 479.191 269.154 493.22 269.154C507.249 269.154 518.622 266.757 518.622 263.8V270.939Z" fill="white"/>
<path d="M493.219 276.739C480.688 276.739 467.371 274.706 467.371 270.939V263.8C467.371 263.553 467.571 263.354 467.817 263.354C468.062 263.354 468.262 263.553 468.262 263.8C468.262 266.121 478.511 268.708 493.219 268.708C507.926 268.708 518.176 266.121 518.176 263.8C518.176 263.553 518.376 263.354 518.622 263.354C518.868 263.354 519.067 263.553 519.067 263.8V270.939C519.067 274.706 505.749 276.739 493.219 276.739ZM468.262 265.411V270.939C468.262 273.26 478.511 275.847 493.219 275.847C507.926 275.847 518.176 273.26 518.176 270.939V265.411C514.996 268.143 503.826 269.6 493.219 269.6C482.613 269.6 471.442 268.143 468.262 265.411Z" fill="#3A3A3A"/>
<path d="M311.051 248.987L299.383 226.583C295.026 218.216 289.162 210.735 282.09 204.52L279.163 201.948L266.626 191.53L258.496 184.201C246.654 173.527 229.087 172.381 215.973 181.428L200.529 192.079C198.569 193.43 197.382 195.653 197.345 198.043L196.948 223.606L214.782 219.187L257.443 269.077L310.755 249.752C311.064 249.64 311.204 249.28 311.051 248.987Z" fill="white"/>
<path d="M257.444 269.569C257.304 269.569 257.168 269.508 257.073 269.398L214.607 219.737L197.065 224.084C196.917 224.12 196.762 224.086 196.642 223.992C196.524 223.897 196.456 223.751 196.458 223.599L196.855 198.036C196.896 195.491 198.166 193.113 200.251 191.674L215.695 181.021C221.545 176.986 228.383 174.854 235.472 174.854C244.105 174.854 252.397 178.043 258.823 183.835L266.954 191.163L279.476 201.569L282.412 204.151C289.559 210.432 295.414 217.903 299.817 226.357L311.485 248.76C311.623 249.026 311.64 249.338 311.533 249.618C311.425 249.897 311.201 250.116 310.921 250.218L257.61 269.543C257.555 269.56 257.5 269.569 257.444 269.569ZM214.782 218.695C214.923 218.695 215.059 218.756 215.153 218.866L257.595 268.5L310.588 249.29L298.949 226.811C294.603 218.466 288.822 211.092 281.767 204.89L278.841 202.317L266.315 191.907L258.169 184.566C251.925 178.937 243.864 175.837 235.472 175.837C228.582 175.837 221.935 177.91 216.249 181.832L200.806 192.485C198.981 193.744 197.87 195.825 197.835 198.051L197.447 222.975L214.664 218.708C214.704 218.7 214.743 218.695 214.782 218.695Z" fill="#3A3A3A"/>
<path d="M192.075 239.592L187.144 243.81H143.019L144.51 243.132C146.046 242.424 147.726 242.096 149.409 242.173L151.657 242.283C152.016 242.143 152.394 242.014 152.779 241.896L179.393 227.896L192.075 239.592Z" fill="white"/>
<path d="M187.144 244.302H143.018C142.788 244.302 142.589 244.14 142.541 243.913C142.492 243.687 142.606 243.456 142.817 243.361L144.309 242.683C145.92 241.941 147.659 241.601 149.43 241.681L151.575 241.786C151.917 241.656 152.272 241.536 152.635 241.425L179.167 227.46C179.35 227.365 179.57 227.393 179.724 227.534L192.406 239.23C192.508 239.326 192.567 239.46 192.564 239.602C192.561 239.744 192.5 239.877 192.392 239.968L187.46 244.186C187.372 244.26 187.26 244.302 187.144 244.302ZM145.335 243.318H186.964L191.337 239.579L179.315 228.492L153.005 242.332C152.547 242.481 152.181 242.606 151.833 242.743C151.769 242.767 151.697 242.778 151.632 242.775L149.384 242.665C148 242.6 146.625 242.823 145.335 243.318Z" fill="#3A3A3A"/>
<path d="M294.146 241.606L279.925 243.416L214.912 281.125C204.319 287.269 201.809 301.535 209.653 310.967C211.748 313.486 215.514 314.108 215.646 314.049L283.587 287.873C299.286 281.773 307.577 264.464 302.533 248.32L302.022 246.685C300.964 243.299 297.648 241.161 294.146 241.606Z" fill="#3A3A3A"/>
<path d="M292.198 275.207L304.503 273.277L311.593 269.557L318.293 290.216L297.72 294.974L292.198 275.207Z" fill="white"/>
<path d="M297.72 295.466C297.505 295.466 297.309 295.323 297.249 295.107L291.727 275.34C291.689 275.204 291.71 275.059 291.787 274.94C291.863 274.821 291.984 274.741 292.123 274.72L304.348 272.802L311.368 269.12C311.496 269.053 311.646 269.045 311.779 269.1C311.914 269.154 312.015 269.265 312.06 269.403L318.759 290.062C318.801 290.194 318.787 290.336 318.72 290.456C318.653 290.576 318.537 290.663 318.404 290.694L297.831 295.452C297.792 295.462 297.756 295.466 297.72 295.466ZM292.818 275.609L298.065 294.39L317.662 289.858L311.309 270.263L304.729 273.714C304.681 273.739 304.63 273.755 304.578 273.764L292.818 275.609Z" fill="#3A3A3A"/>
<path d="M205.366 299.287C205.154 308.796 212.518 316.743 221.967 317.204L228.794 317.537L300.671 294.893L294.867 274.597L290.435 275.306L245.1 278.603C244.096 278.663 243.1 278.804 242.12 279.028L229.607 281.877L222.187 282.145C212.949 282.479 205.572 289.997 205.366 299.287Z" fill="#3A3A3A"/>
<path d="M191.644 160.23L191.518 182.004C191.582 184.579 194.124 186.344 196.542 185.492L218.963 177.595L191.644 160.23Z" fill="#C78982"/>
<path d="M204.323 146.659L204.816 146.647C206.902 146.594 208.634 148.251 208.686 150.346L209.015 163.527L191.534 163.969L191.442 160.277C191.259 152.94 197.026 146.843 204.323 146.659Z" fill="#C78982"/>
<path d="M202.397 161.184L191.439 161.461L191.788 175.466L202.746 175.189L202.397 161.184Z" fill="#C78982"/>
<path d="M229.613 200.512L223.063 176.115L223.108 176.103L216.465 151.179C214.998 145.673 209.369 142.405 203.892 143.881L198.88 145.231C189.522 147.752 183.967 157.424 186.475 166.833L187.871 172.07L185.68 176.027C184.902 177.432 186.159 179.094 187.713 178.715L189.525 178.273L191.235 184.689L196.263 183.335L228.002 201.758C228.85 202.251 229.868 201.465 229.613 200.512Z" fill="white"/>
<path d="M228.551 202.402C228.277 202.402 228.001 202.327 227.756 202.184L196.194 183.863L191.361 185.166C191.234 185.2 191.102 185.181 190.989 185.116C190.877 185.051 190.795 184.943 190.761 184.817L189.176 178.866L187.828 179.193C186.833 179.435 185.79 178.983 185.275 178.102C184.855 177.384 184.846 176.519 185.253 175.788L187.348 172.005L186.003 166.961C183.431 157.305 189.151 147.343 198.754 144.756L203.765 143.405C204.679 143.159 205.618 143.034 206.555 143.034C211.412 143.034 215.68 146.332 216.938 151.052L223.581 175.976C223.599 176.046 223.601 176.12 223.589 176.19L230.086 200.384C230.216 200.87 230.118 201.373 229.819 201.767C229.516 202.165 229.041 202.402 228.551 202.402ZM196.263 182.843C196.348 182.843 196.432 182.865 196.507 182.909L228.246 201.332C228.344 201.389 228.447 201.418 228.552 201.418C228.74 201.418 228.923 201.324 229.042 201.169C229.108 201.081 229.21 200.897 229.142 200.641L222.592 176.244C222.572 176.173 222.57 176.099 222.582 176.028L215.991 151.307C214.849 147.016 210.968 144.019 206.555 144.019C205.703 144.019 204.85 144.132 204.019 144.356L199.008 145.707C189.924 148.154 184.514 157.574 186.949 166.707L188.345 171.944C188.377 172.067 188.362 172.199 188.299 172.311L186.107 176.268C185.87 176.697 185.874 177.185 186.12 177.605C186.424 178.125 187.01 178.382 187.598 178.239L189.411 177.798C189.676 177.735 189.93 177.89 190 178.148L191.582 184.089L196.137 182.861C196.177 182.849 196.22 182.843 196.263 182.843Z" fill="#3A3A3A"/>
<path d="M187.391 169.357L189.816 168.704C190.098 168.628 190.399 168.667 190.651 168.814L191.932 169.557" fill="white"/>
<path d="M191.931 170.049C191.848 170.049 191.763 170.028 191.686 169.983L190.406 169.24C190.264 169.157 190.098 169.137 189.942 169.178L187.517 169.831C187.254 169.902 186.987 169.746 186.917 169.483C186.847 169.22 187.002 168.951 187.263 168.881L189.689 168.227C190.103 168.116 190.529 168.174 190.895 168.387L192.176 169.13C192.41 169.266 192.49 169.567 192.355 169.802C192.265 169.96 192.099 170.049 191.931 170.049Z" fill="#3A3A3A"/>
<path d="M201.542 169.532L202.548 173.308C203.476 176.789 202.255 180.492 199.441 182.725C198.714 179.993 195.922 178.373 193.205 179.105L189.978 179.974L191.812 186.857C192.481 189.366 195.452 190.411 197.531 188.869L205.77 182.755C206.983 181.855 207.524 180.3 207.134 178.835L203.667 165.83C202.064 166.263 201.112 167.92 201.542 169.532Z" fill="#3A3A3A"/>
<path d="M195.187 184.611L192.899 185.835C192.29 186.16 191.539 185.832 191.361 185.163L190.571 182.198L192.909 181.568C194.161 181.231 195.447 181.978 195.783 183.236C195.926 183.778 195.679 184.348 195.187 184.611Z" fill="white"/>
<path d="M192.397 186.453C191.69 186.453 191.07 185.975 190.887 185.289L190.096 182.324C190.063 182.198 190.081 182.064 190.146 181.951C190.21 181.838 190.317 181.755 190.444 181.722L192.781 181.092C193.021 181.027 193.269 180.994 193.517 180.994C194.798 180.994 195.923 181.863 196.256 183.109C196.46 183.876 196.115 184.673 195.417 185.046L193.129 186.269C192.902 186.389 192.649 186.453 192.397 186.453ZM191.169 182.545L191.834 185.034C191.926 185.381 192.344 185.573 192.67 185.399L194.958 184.176C195.251 184.02 195.395 183.685 195.309 183.362C195.05 182.39 194.009 181.779 193.035 182.042L191.169 182.545Z" fill="#3A3A3A"/>
<path d="M329.383 294.849L325.01 287.022L324.985 282.584L321.495 280.732L320.23 278.467L312.999 265.522L309.48 266.422L309.041 266.693L303.951 269.834L296.723 274.296C295.975 274.76 296.09 275.89 296.915 276.189L301.633 277.911C304.687 279.024 306.845 281.795 307.183 285.044L307.689 289.842L305.146 290.006C304.259 290.065 303.554 290.781 303.511 291.677L303.482 293.775L308.081 294.721C310.76 295.272 312.91 297.275 313.661 299.918L313.757 300.257C313.876 301.427 313.891 302.614 313.772 303.804L312.97 311.844C312.88 312.754 313.13 313.631 313.621 314.333C314.115 315.036 314.85 315.566 315.734 315.786C316.938 316.084 318.209 315.752 319.114 314.899L320.267 313.816L322.237 311.962L322.395 311.814L322.402 311.786L325.081 300.239V300.205L327.763 300.067C327.763 300.065 329.21 295.636 329.383 294.849Z" fill="white"/>
<path d="M316.611 316.384C316.277 316.384 315.942 316.343 315.617 316.262C314.652 316.023 313.801 315.439 313.221 314.617C312.647 313.794 312.385 312.793 312.484 311.795L313.285 303.755C313.395 302.654 313.39 301.493 313.27 300.307L313.19 300.054C312.485 297.578 310.49 295.72 307.982 295.203L303.383 294.257C303.154 294.21 302.99 294.004 302.993 293.768L303.021 291.67C303.077 290.509 303.976 289.59 305.114 289.514L307.148 289.385L306.696 285.097C306.379 282.055 304.326 279.417 301.466 278.375L296.747 276.653C296.189 276.45 295.803 275.954 295.743 275.357C295.681 274.759 295.959 274.192 296.467 273.878L309.222 266.003C309.266 265.977 309.312 265.957 309.36 265.945L312.879 265.045C313.094 264.99 313.317 265.087 313.426 265.281L321.852 280.364L325.214 282.148C325.374 282.232 325.475 282.399 325.476 282.58L325.498 286.892L329.808 294.608C329.868 294.713 329.886 294.836 329.86 294.954C329.686 295.757 328.288 300.038 328.227 300.22C328.165 300.413 327.99 300.547 327.788 300.557L325.484 300.676L322.881 311.897C322.859 311.993 322.802 312.106 322.731 312.173L319.45 315.258C318.677 315.984 317.669 316.384 316.611 316.384ZM303.977 293.375L308.18 294.24C311.047 294.83 313.328 296.954 314.132 299.784L314.229 300.122C314.372 301.46 314.377 302.687 314.259 303.854L313.458 311.894C313.384 312.657 313.584 313.423 314.022 314.051C314.464 314.678 315.115 315.126 315.853 315.309C316.889 315.565 318.004 315.271 318.78 314.54L321.953 311.556L324.601 300.145C324.642 299.92 324.827 299.725 325.057 299.713L327.402 299.592C327.879 298.126 328.645 295.735 328.86 294.921L324.583 287.264C324.542 287.191 324.52 287.109 324.52 287.025L324.499 282.881L321.268 281.167C321.185 281.123 321.117 281.056 321.071 280.973L312.757 266.093L309.675 266.881L296.981 274.717C296.794 274.833 296.695 275.035 296.718 275.256C296.739 275.477 296.876 275.653 297.082 275.728L301.801 277.45C305.01 278.619 307.315 281.581 307.67 284.995L308.176 289.792C308.191 289.925 308.15 290.059 308.063 290.161C307.977 290.263 307.854 290.326 307.721 290.335L305.179 290.499C304.538 290.541 304.031 291.059 304 291.702L303.977 293.375Z" fill="#3A3A3A"/>
<path d="M330.141 291.31C330.198 291.047 330.256 290.778 330.312 290.519L325.21 281.108L318.542 268.805C317.132 266.207 314.361 264.66 311.423 264.834L309.791 264.93C309.023 264.975 308.562 265.81 308.929 266.489L309.041 266.694L313.482 274.89L315.359 278.349C315.907 279.362 316.642 280.245 317.511 280.961C318.381 281.677 319.39 282.224 320.481 282.564C320.916 282.701 321.282 283.002 321.501 283.404L325.79 291.314L320.08 314.575L322.133 312.38L322.298 312.204L325.524 308.757C325.935 308.315 326.227 307.774 326.371 307.187L328.872 296.999L328.906 297.062C329.011 296.57 329.125 296.033 329.245 295.479L330.261 291.34L330.141 291.31Z" fill="white"/>
<path d="M320.081 315.066C320.001 315.066 319.92 315.047 319.847 315.006C319.652 314.899 319.552 314.674 319.606 314.456L325.27 291.381L321.073 283.639C320.915 283.348 320.653 283.133 320.336 283.032C319.186 282.674 318.132 282.105 317.203 281.341C316.267 280.571 315.502 279.643 314.93 278.584L308.501 266.724C308.248 266.256 308.249 265.698 308.508 265.233C308.765 264.766 309.235 264.469 309.764 264.439L311.395 264.343C314.542 264.158 317.476 265.815 318.973 268.569L330.742 290.285C330.799 290.389 330.816 290.51 330.79 290.626L330.689 291.098C330.75 291.207 330.769 291.336 330.738 291.459L329.388 297.167C329.37 297.245 329.335 297.317 329.286 297.377L326.848 307.306C326.684 307.973 326.35 308.592 325.884 309.093L320.438 314.913C320.343 315.013 320.213 315.066 320.081 315.066ZM311.871 265.313C311.732 265.313 311.593 265.317 311.452 265.324L309.821 265.42C309.625 265.431 309.458 265.537 309.363 265.709C309.267 265.882 309.266 266.079 309.36 266.252L315.789 278.112C316.3 279.06 316.985 279.89 317.821 280.579C318.654 281.263 319.596 281.773 320.626 282.093C321.187 282.27 321.65 282.651 321.931 283.167L326.221 291.078C326.279 291.187 326.295 291.313 326.266 291.432L321.003 312.87L325.168 308.419C325.52 308.04 325.772 307.574 325.897 307.069L328.398 296.881C328.415 296.814 328.444 296.753 328.484 296.7L328.767 295.375L329.709 291.541C329.656 291.441 329.637 291.323 329.663 291.204L329.795 290.594L318.112 269.04C316.864 266.741 314.473 265.313 311.871 265.313Z" fill="#3A3A3A"/>
<path d="M261.507 282.58L263.892 294.869L265.509 301.884L247.578 309.365L242.07 288.876L261.507 282.58Z" fill="white"/>
<path d="M247.578 309.857C247.505 309.857 247.43 309.84 247.362 309.807C247.236 309.745 247.142 309.631 247.105 309.494L241.597 289.005C241.529 288.751 241.67 288.489 241.919 288.408L261.357 282.112C261.491 282.069 261.636 282.086 261.755 282.156C261.876 282.228 261.96 282.348 261.987 282.486L264.373 294.775L265.985 301.774C266.039 302.008 265.917 302.247 265.695 302.34L247.764 309.82C247.706 309.844 247.642 309.857 247.578 309.857ZM242.664 289.2L247.905 308.696L264.939 301.59L263.415 294.98L261.133 283.218L242.664 289.2Z" fill="#3A3A3A"/>
<path d="M239.659 196.238L234.288 196.254C224.829 196.401 217.209 204.1 217.108 213.611L217.035 220.482L242.436 290.859L262.215 285.238L261.342 280.813L256.348 235.391C256.251 234.385 256.073 233.389 255.814 232.413L252.509 219.949L239.659 196.238Z" fill="#3A3A3A"/>
<path d="M311.069 249.431L241.354 198.16C236.354 194.482 229.267 196.169 226.44 201.711C222.799 208.85 218.697 217.024 218.912 217.22L278.809 276.933C279.919 278.04 281.419 278.661 282.983 278.661C298.884 278.661 311.618 265.409 311.069 249.431Z" fill="#3A3A3A"/>
<path d="M282.982 279.154C281.279 279.154 279.674 278.489 278.464 277.283L218.567 217.57C218.189 217.227 218.042 217.093 226.004 201.487C227.822 197.924 231.43 195.711 235.42 195.711C237.666 195.711 239.818 196.421 241.643 197.763L311.548 249.177L311.557 249.416C311.827 257.278 308.983 264.723 303.546 270.381C298.111 276.038 290.807 279.154 282.982 279.154ZM219.445 217.059L279.155 276.585C280.18 277.607 281.539 278.17 282.982 278.17C290.54 278.17 297.593 275.161 302.843 269.696C308.038 264.289 310.782 257.192 310.586 249.687L241.065 198.558C239.409 197.339 237.456 196.696 235.419 196.696C231.798 196.696 228.524 198.703 226.875 201.936C221.016 213.42 219.702 216.342 219.445 217.059Z" fill="#3A3A3A"/>
<path d="M223.782 315.433L219.476 312.855C218.288 312.143 217.462 310.928 217.279 309.623C217.011 307.705 218.187 306.078 220.038 305.806L228.204 304.609C233.365 303.852 237.622 300.834 239.872 296.335L242.565 290.949L246.148 292.976C247.011 293.464 247.457 294.475 247.183 295.325L246.399 297.758L251.311 299.697C254.638 301.01 258.167 300.406 260.401 298.139L263.851 294.64C264.455 294.027 265.608 294.487 265.785 295.412L268.799 311.155L268.375 314.861L223.782 315.433Z" fill="white"/>
<path d="M223.782 315.926C223.694 315.926 223.607 315.902 223.532 315.857L219.225 313.278C217.907 312.489 216.998 311.147 216.795 309.692C216.489 307.509 217.854 305.63 219.967 305.32L228.134 304.123C233.138 303.39 237.257 300.471 239.436 296.115L242.129 290.73C242.189 290.61 242.296 290.519 242.424 290.48C242.55 290.441 242.69 290.456 242.807 290.521L246.389 292.548C247.452 293.149 247.994 294.409 247.65 295.477L247.008 297.47L251.492 299.239C254.589 300.462 257.996 299.885 260.056 297.793L263.504 294.294C263.775 294.02 264.141 293.87 264.536 293.87C265.366 293.87 266.109 294.493 266.269 295.319L269.283 311.063C269.293 311.112 269.295 311.162 269.289 311.212L268.864 314.919C268.836 315.165 268.63 315.352 268.384 315.355L223.79 315.927C223.786 315.926 223.784 315.926 223.782 315.926ZM242.773 291.632L240.31 296.556C237.987 301.203 233.6 304.316 228.275 305.096L220.108 306.293C218.518 306.527 217.532 307.898 217.763 309.554C217.925 310.717 218.659 311.794 219.726 312.432L223.913 314.94L267.939 314.375L268.305 311.174L265.306 295.505C265.196 294.928 264.486 294.695 264.198 294.988L260.751 298.487C259.231 300.027 257.127 300.875 254.821 300.875C253.582 300.875 252.342 300.633 251.133 300.156L246.219 298.217C245.979 298.122 245.853 297.855 245.933 297.608L246.717 295.175C246.916 294.553 246.561 293.776 245.907 293.406L242.773 291.632Z" fill="#3A3A3A"/>
<path d="M270.152 312.192L269.64 313.75C268.718 316.553 266.163 318.341 263.081 318.341H230.314C229.684 318.341 229.042 318.177 228.449 317.867L221.222 314.078C221.068 313.998 221.125 313.763 221.3 313.763H247.602C248.079 313.763 248.512 313.575 248.808 313.241C250.292 311.558 252.465 310.616 254.865 310.616H268.937C269.743 310.614 270.394 311.458 270.152 312.192Z" fill="white"/>
<path d="M263.081 318.833H230.314C229.606 318.833 228.882 318.65 228.223 318.303L220.995 314.514C220.727 314.373 220.59 314.067 220.662 313.772C220.734 313.476 220.996 313.27 221.299 313.27H247.6C247.939 313.27 248.237 313.143 248.439 312.913C250.025 311.113 252.306 310.122 254.863 310.122H268.935C269.488 310.122 270.02 310.403 270.36 310.876C270.683 311.323 270.776 311.86 270.616 312.345L270.104 313.903C269.119 316.898 266.362 318.833 263.081 318.833ZM222.618 314.254L228.676 317.43C229.197 317.704 229.762 317.849 230.314 317.849H263.081C265.933 317.849 268.325 316.179 269.176 313.595L269.688 312.037C269.748 311.855 269.705 311.642 269.569 311.452C269.412 311.236 269.176 311.106 268.936 311.106H254.864C252.593 311.106 250.571 311.979 249.174 313.565C248.788 314.003 248.215 314.253 247.602 314.253H222.618V314.254Z" fill="#3A3A3A"/>
<path d="M246.323 181.926L245.055 180.614C242.151 177.611 237.376 177.543 234.39 180.462L197.791 217.783L167.044 233.847L172.145 243.811H194.473L207.559 236.966C209.279 236.076 210.684 234.822 211.756 233.355L246.081 199.116C250.869 194.435 250.977 186.739 246.323 181.926Z" fill="white"/>
<path d="M194.473 244.302H172.145C171.961 244.302 171.794 244.199 171.71 244.035L166.61 234.071C166.486 233.83 166.58 233.535 166.819 233.41L197.496 217.383L234.041 180.118C236.06 178.143 238.999 177.37 241.715 178.097C241.978 178.167 242.132 178.436 242.063 178.699C241.994 178.961 241.728 179.12 241.465 179.049C239.039 178.402 236.524 179.063 234.731 180.817L198.139 218.129C198.103 218.165 198.062 218.196 198.016 218.22L167.703 234.057L172.443 243.318H194.354L207.333 236.529C208.932 235.701 210.287 234.536 211.362 233.063L245.736 198.765C246.718 197.806 247.511 196.703 248.098 195.483C248.216 195.238 248.509 195.136 248.752 195.255C248.996 195.373 249.097 195.667 248.979 195.912C248.343 197.235 247.482 198.432 246.422 199.468L212.102 233.704C210.985 235.241 209.515 236.505 207.783 237.403L194.699 244.247C194.629 244.283 194.551 244.302 194.473 244.302Z" fill="#3A3A3A"/>
<path d="M261.708 286.443C261.46 286.443 261.247 286.254 261.222 286L255.785 232.032C255.307 227.272 253.643 222.661 250.972 218.699L244.305 208.803C244.154 208.578 244.212 208.272 244.436 208.119C244.659 207.968 244.964 208.026 245.115 208.251L251.783 218.146C254.543 222.244 256.264 227.011 256.759 231.932L262.196 285.9C262.223 286.171 262.027 286.412 261.759 286.44C261.742 286.442 261.726 286.443 261.708 286.443Z" fill="white"/>
<path d="M286.113 277.015C281.06 277.015 276.152 275.025 272.513 271.47L258.277 257.561C258.083 257.371 258.079 257.06 258.267 256.865C258.455 256.67 258.766 256.666 258.959 256.855L273.195 270.764C276.882 274.366 281.944 276.275 287.073 276.006L294.393 275.62C294.651 275.61 294.893 275.815 294.907 276.086C294.92 276.357 294.714 276.589 294.444 276.603L287.124 276.988C286.788 277.006 286.45 277.015 286.113 277.015Z" fill="white"/>
<path d="M242.393 290.326C242.194 290.326 242.007 290.203 241.934 290.005L234.465 269.809C234.371 269.554 234.5 269.27 234.753 269.176C235.005 269.081 235.289 269.211 235.383 269.465L242.852 289.662C242.946 289.917 242.817 290.2 242.563 290.295C242.507 290.317 242.45 290.326 242.393 290.326Z" fill="white"/>
<path d="M141.395 92.905L126.423 96.6485L127.934 107.95L144.357 103.239C146.605 102.59 147.92 100.339 147.92 97.9995C147.92 95.0426 145.515 92.7671 142.719 92.746C142.284 92.7431 141.841 92.7939 141.395 92.905Z" fill="white"/>
<path d="M127.934 108.429C127.842 108.429 127.751 108.402 127.671 108.35C127.555 108.274 127.477 108.151 127.459 108.013L125.948 96.7117C125.915 96.4703 126.069 96.2422 126.307 96.1838L141.279 92.4403C141.74 92.3254 142.214 92.2669 142.685 92.2669C145.853 92.2909 148.4 94.8625 148.4 97.9995C148.4 100.734 146.828 103.024 144.489 103.698L128.065 108.41C128.023 108.423 127.979 108.429 127.934 108.429ZM126.955 97.0097L128.335 107.337L144.225 102.779C146.148 102.224 147.441 100.303 147.441 98.0004C147.441 95.3876 145.322 93.2452 142.716 93.226C142.716 93.226 142.716 93.226 142.715 93.226C142.291 93.226 141.896 93.2749 141.511 93.3707L126.955 97.0097Z" fill="#3A3A3A"/>
<path d="M126.423 107.193C129.07 107.193 131.215 105.047 131.215 102.4C131.215 99.7539 129.069 97.6076 126.423 97.6076H89.0359V107.194H126.423V107.193Z" fill="white"/>
<path d="M126.423 107.673H89.036C88.7715 107.673 88.5569 107.458 88.5569 107.194V97.6076C88.5569 97.3432 88.7715 97.1285 89.036 97.1285H126.423C129.33 97.1285 131.695 99.4932 131.695 102.4C131.695 105.307 129.33 107.672 126.423 107.673ZM89.5151 106.715H126.423C128.801 106.714 130.736 104.778 130.736 102.4C130.736 100.022 128.801 98.0867 126.423 98.0867H89.5151V106.715Z" fill="#3A3A3A"/>
<path d="M126.423 108.151H89.036C88.5062 108.151 88.0779 107.722 88.0779 107.193C88.0779 106.663 88.5062 106.235 89.036 106.235H126.422C128.537 106.235 130.256 104.515 130.256 102.4C130.256 100.286 128.537 98.5657 126.422 98.5657H89.036C88.5062 98.5657 88.0779 98.1365 88.0779 97.6076C88.0779 97.0787 88.5062 96.6494 89.036 96.6494H126.422C129.593 96.6494 132.174 99.2297 132.174 102.401C132.174 105.573 129.594 108.151 126.423 108.151Z" fill="#3A3A3A"/>
<path d="M126.423 108.63H89.0361C88.2437 108.63 87.5989 107.985 87.5989 107.193C87.5989 106.4 88.2437 105.756 89.0361 105.756H126.422C128.272 105.756 129.777 104.25 129.777 102.4C129.777 100.55 128.272 99.0448 126.422 99.0448H89.0361C88.2437 99.0448 87.5989 98.4 87.5989 97.6076C87.5989 96.8152 88.2437 96.1704 89.0361 96.1704H126.422C129.858 96.1704 132.653 98.9653 132.653 102.401C132.653 105.836 129.858 108.63 126.423 108.63ZM89.0361 106.714C88.7717 106.714 88.557 106.928 88.557 107.193C88.557 107.457 88.7717 107.672 89.0361 107.672H126.423C129.33 107.672 131.695 105.307 131.695 102.401C131.695 99.4942 129.329 97.1285 126.422 97.1285H89.0361C88.7717 97.1285 88.557 97.3431 88.557 97.6076C88.557 97.872 88.7717 98.0867 89.0361 98.0867H126.422C128.8 98.0867 130.736 100.022 130.736 102.4C130.736 104.778 128.8 106.714 126.422 106.714H89.0361Z" fill="#3A3A3A"/>
<path d="M89.0361 96.6485H127.381L142.719 92.746H106.597L89.0361 96.6485Z" fill="white"/>
<path d="M127.381 97.1276H89.036C88.7917 97.1276 88.5866 96.9436 88.5598 96.7012C88.533 96.4588 88.6939 96.2346 88.9325 96.1809L106.494 92.2784C106.527 92.2708 106.563 92.2669 106.597 92.2669H142.719C142.961 92.2669 143.165 92.4471 143.195 92.6866C143.224 92.9261 143.072 93.1503 142.837 93.2107L127.499 97.1132C127.46 97.1228 127.421 97.1276 127.381 97.1276ZM93.4005 96.1694H127.322L138.893 93.2251H106.65L93.4005 96.1694Z" fill="#3A3A3A"/>
<path d="M141.722 84.0114L131.987 86.0733C134.588 86.0733 136.704 88.1133 136.704 90.6206C136.704 92.3779 134.71 94.2607 133.193 95.017L143.752 92.3043C145.714 91.8261 147.089 90.1242 147.089 88.1724C147.089 85.4515 144.479 83.4278 141.722 84.0114Z" fill="white"/>
<path d="M133.193 95.4716C133.003 95.4716 132.825 95.3598 132.754 95.1807C132.667 94.9643 132.763 94.7198 132.977 94.6134C134.342 93.9325 136.232 92.167 136.232 90.6206C136.232 88.3642 134.328 86.5278 131.987 86.5278C131.747 86.5278 131.544 86.3533 131.519 86.1224C131.493 85.8915 131.652 85.6787 131.887 85.6296L141.621 83.5678C141.97 83.4932 142.326 83.456 142.679 83.456C145.371 83.456 147.561 85.5715 147.561 88.1724C147.561 90.3343 146.042 92.2152 143.868 92.7452L133.315 95.4562C133.274 95.4671 133.234 95.4716 133.193 95.4716ZM134.16 86.0787C135.938 86.8724 137.175 88.6097 137.175 90.6206C137.175 91.8316 136.381 93.0379 135.408 93.978L143.63 91.8652C145.392 91.4361 146.618 89.9179 146.618 88.1724C146.618 86.0733 144.851 84.3651 142.679 84.3651C142.394 84.3651 142.105 84.3951 141.823 84.4551L134.16 86.0787Z" fill="#3A3A3A"/>
<path d="M131.987 86.0733H92.3677L103.985 83.9106H142.599L131.987 86.0733Z" fill="white"/>
<path d="M131.987 86.5278H92.3678C92.1245 86.5278 91.9218 86.3497 91.8982 86.1169C91.8747 85.8842 92.0397 85.6715 92.2782 85.6269L103.895 83.4642L142.6 83.456C142.841 83.456 143.044 83.6314 143.068 83.8633C143.094 84.0951 142.933 84.3069 142.697 84.3551L132.085 86.5178C132.053 86.5242 132.02 86.5278 131.987 86.5278ZM97.2773 85.6187H131.938L138.09 84.3651H103.985L97.2773 85.6187Z" fill="#3A3A3A"/>
<path d="M131.987 94.2589C134.071 94.2589 135.761 92.6297 135.761 90.6206C135.761 88.6115 134.071 86.9833 131.987 86.9833H92.3677V94.2598L131.987 94.2589Z" fill="white"/>
<path d="M131.987 94.7143H92.3677C92.1074 94.7143 91.8962 94.5106 91.8962 94.2597V86.9833C91.8962 86.7323 92.1074 86.5287 92.3677 86.5287H131.987C134.328 86.5287 136.232 88.3642 136.232 90.6206C136.232 92.877 134.328 94.7134 131.987 94.7143ZM92.8391 93.8052H131.987C133.808 93.8043 135.289 92.3761 135.289 90.6206C135.289 88.866 133.808 87.4378 131.987 87.4378H92.8391V93.8052Z" fill="#3A3A3A"/>
<path d="M131.987 95.1689H92.3677C91.8463 95.1689 91.4248 94.7616 91.4248 94.2598C91.4248 93.758 91.8463 93.3507 92.3677 93.3507H131.987C133.548 93.3507 134.817 92.127 134.817 90.6225C134.817 89.1179 133.548 87.8924 131.987 87.8924H92.3677C91.8463 87.8924 91.4248 87.4852 91.4248 86.9833C91.4248 86.4815 91.8463 86.0742 92.3677 86.0742H131.987C134.588 86.0742 136.704 88.1143 136.704 90.6216C136.704 93.1289 134.588 95.1689 131.987 95.1689Z" fill="#3A3A3A"/>
<path d="M131.987 95.6234H92.3677C91.5879 95.6234 90.9534 95.0116 90.9534 94.2598C90.9534 93.5079 91.5879 92.8961 92.3677 92.8961H131.987C133.288 92.8961 134.345 91.8761 134.345 90.6224C134.345 89.3679 133.288 88.347 131.987 88.347H92.3677C91.5879 88.347 90.9534 87.7351 90.9534 86.9833C90.9534 86.2315 91.5879 85.6196 92.3677 85.6196H131.987C134.848 85.6196 137.175 87.8633 137.175 90.6215C137.175 93.3798 134.848 95.6234 131.987 95.6234ZM92.3677 93.8052C92.1074 93.8052 91.8962 94.0089 91.8962 94.2598C91.8962 94.5107 92.1074 94.7143 92.3677 94.7143H131.987C134.328 94.7143 136.232 92.8779 136.232 90.6215C136.232 88.3651 134.328 86.5287 131.987 86.5287H92.3677C92.1074 86.5287 91.8962 86.7324 91.8962 86.9833C91.8962 87.2342 92.1074 87.4379 92.3677 87.4379H131.987C133.808 87.4379 135.288 88.8661 135.288 90.6224C135.288 92.377 133.808 93.8052 131.987 93.8052H92.3677Z" fill="#3A3A3A"/>
<path d="M137.905 73.1219L128.098 75.2548C130.718 75.2548 132.849 77.3652 132.849 79.959C132.849 81.7769 130.841 83.7245 129.313 84.507L139.95 81.7007C141.926 81.206 143.312 79.4455 143.312 77.4263C143.312 74.6116 140.682 72.5181 137.905 73.1219Z" fill="white"/>
<path d="M129.313 84.9773C129.121 84.9773 128.942 84.8616 128.87 84.6763C128.783 84.4525 128.88 84.1995 129.095 84.0895C130.47 83.3851 132.374 81.5587 132.374 79.959C132.374 77.6248 130.456 75.7251 128.098 75.7251C127.856 75.7251 127.652 75.5445 127.626 75.3056C127.6 75.0668 127.76 74.8467 127.996 74.7959L137.803 72.663C138.154 72.5858 138.513 72.5473 138.869 72.5473C141.58 72.5473 143.787 74.7357 143.787 77.4264C143.787 79.6628 142.257 81.6086 140.066 82.1568L129.435 84.9613C129.395 84.9726 129.354 84.9773 129.313 84.9773ZM130.287 75.2605C132.078 76.0815 133.324 77.8787 133.324 79.959C133.324 81.2117 132.524 82.4597 131.544 83.4321L139.827 81.2465C141.602 80.8026 142.837 79.232 142.837 77.4264C142.837 75.2549 141.057 73.4877 138.869 73.4877C138.582 73.4877 138.291 73.5188 138.006 73.5808L130.287 75.2605Z" fill="#3A3A3A"/>
<path d="M128.098 75.2548H88.1851L99.8883 73.0174H138.789L128.098 75.2548Z" fill="white"/>
<path d="M128.098 75.7251H88.185C87.9399 75.7251 87.7357 75.5408 87.712 75.3C87.6882 75.0592 87.8545 74.8392 88.0948 74.7931L99.798 72.5558L138.789 72.5473C139.032 72.5473 139.236 72.7288 139.261 72.9686C139.287 73.2084 139.125 73.4276 138.887 73.4774L128.196 75.7147C128.164 75.7213 128.131 75.7251 128.098 75.7251ZM93.1309 74.7846H128.049L134.246 73.4877H99.8882L93.1309 74.7846Z" fill="#3A3A3A"/>
<path d="M128.098 83.7226C130.197 83.7226 131.9 82.0373 131.9 79.9589C131.9 77.8805 130.197 76.1962 128.098 76.1962H88.1851V83.7236L128.098 83.7226Z" fill="white"/>
<path d="M128.098 84.1939H88.1851C87.923 84.1939 87.7102 83.9832 87.7102 83.7236V76.1962C87.7102 75.9367 87.923 75.726 88.1851 75.726H128.098C130.456 75.726 132.375 77.6248 132.375 79.959C132.375 82.2932 130.456 84.1929 128.098 84.1939ZM88.6601 83.2534H128.098C129.932 83.2525 131.425 81.775 131.425 79.959C131.425 78.1439 129.932 76.6665 128.098 76.6665H88.6601V83.2534Z" fill="#3A3A3A"/>
<path d="M128.098 84.664H88.185C87.6597 84.664 87.2351 84.2427 87.2351 83.7236C87.2351 83.2045 87.6597 82.7831 88.185 82.7831H128.098C129.67 82.7831 130.949 81.5173 130.949 79.9608C130.949 78.4044 129.67 77.1367 128.098 77.1367H88.185C87.6597 77.1367 87.2351 76.7153 87.2351 76.1962C87.2351 75.6771 87.6597 75.2558 88.185 75.2558H128.098C130.718 75.2558 132.849 77.3661 132.849 79.9599C132.849 82.5537 130.718 84.664 128.098 84.664Z" fill="#3A3A3A"/>
<path d="M128.098 85.1343H88.185C87.3995 85.1343 86.7603 84.5013 86.7603 83.7236C86.7603 82.9458 87.3995 82.3129 88.185 82.3129H128.098C129.408 82.3129 130.474 81.2577 130.474 79.9608C130.474 78.663 129.408 77.6069 128.098 77.6069H88.185C87.3995 77.6069 86.7603 76.974 86.7603 76.1962C86.7603 75.4185 87.3995 74.7855 88.185 74.7855H128.098C130.98 74.7855 133.324 77.1066 133.324 79.9599C133.324 82.8132 130.98 85.1343 128.098 85.1343ZM88.185 83.2534C87.9229 83.2534 87.7101 83.464 87.7101 83.7236C87.7101 83.9832 87.9229 84.1938 88.185 84.1938H128.098C130.456 84.1938 132.374 82.2941 132.374 79.9599C132.374 77.6257 130.456 75.726 128.098 75.726H88.185C87.9229 75.726 87.7101 75.9366 87.7101 76.1962C87.7101 76.4558 87.9229 76.6664 88.185 76.6664H128.098C129.932 76.6664 131.424 78.1439 131.424 79.9608C131.424 81.7759 129.932 83.2534 128.098 83.2534H88.185Z" fill="#3A3A3A"/>
</g>
<defs>
<clipPath id="clip0">
<rect width="553" height="415" fill="white"/>
</clipPath>
</defs>
</svg>
