<svg width="24" height="24" viewBox="0 0 24 24" fill="none" xmlns="http://www.w3.org/2000/svg">
<path fill-rule="evenodd" clip-rule="evenodd" d="M6.46967 5.21967C6.76256 4.92678 7.23744 4.92678 7.53033 5.21967L13 10.6893L18.4697 5.21967C18.7626 4.92678 19.2374 4.92678 19.5303 5.21967C19.8232 5.51256 19.8232 5.98744 19.5303 6.28033L14.0607 11.75L19.5303 17.2197C19.8232 17.5126 19.8232 17.9874 19.5303 18.2803C19.2374 18.5732 18.7626 18.5732 18.4697 18.2803L13 12.8107L7.53033 18.2803C7.23744 18.5732 6.76256 18.5732 6.46967 18.2803C6.17678 17.9874 6.17678 17.5126 6.46967 17.2197L11.9393 11.75L6.46967 6.28033C6.17678 5.98744 6.17678 5.51256 6.46967 5.21967Z" fill="#3A3A3A"/>
</svg>
